<?xml version="1.0" encoding="utf-8"?>
<!DOCTYPE svg PUBLIC "-//W3C//DTD SVG 20010904//EN" "http://www.w3.org/TR/2001/REC-SVG-20010904/DTD/svg10.dtd">
<svg version="1.0" xmlns="http://www.w3.org/2000/svg" width="2001pt" height="2001pt" viewBox="0 0 2001 2001" style="" preserveAspectRatio="xMidYMid meet">
<g fill="#00D6FFFF" stroke="#00D6FFFF">
<path d="M 107.000 321.046 C 98.241 321.519 92.194 322.342 89.782 323.388 C 87.737 324.275 84.466 325.000 82.513 325.000 C 79.036 325.000 65.840 329.094 63.622 330.861 C 63.005 331.353 61.375 332.096 60.000 332.512 C 56.026 333.716 48.306 340.713 43.460 347.503 C 41.007 350.941 39.000 354.153 39.000 354.642 C 39.000 355.130 38.052 357.299 36.892 359.462 C 34.532 363.865 32.695 369.997 30.498 380.803 C 29.681 384.820 28.533 389.003 27.947 390.099 C 27.306 391.297 26.664 403.324 26.336 420.295 C 25.805 447.830 26.497 460.831 29.037 471.000 C 32.801 486.067 34.621 491.992 36.696 495.927 C 41.886 505.770 52.643 517.332 62.668 523.840 C 65.326 525.565 68.379 527.657 69.453 528.488 C 70.528 529.320 72.094 530.000 72.934 530.000 C 74.769 530.000 84.313 533.600 88.500 535.872 C 91.135 537.302 97.678 537.540 142.267 537.830 L 193.033 538.159 197.319 540.555 C 206.095 545.460 208.480 550.541 207.384 562.000 C 206.746 568.679 203.426 580.185 200.605 585.500 C 199.729 587.150 199.010 589.043 199.006 589.707 C 199.003 590.370 197.204 594.645 195.009 599.207 C 192.813 603.768 191.013 608.198 191.009 609.050 C 191.004 609.903 190.549 611.051 189.998 611.602 C 189.446 612.154 187.494 616.273 185.659 620.756 C 183.824 625.239 181.862 629.490 181.299 630.204 C 180.736 630.917 179.975 632.759 179.607 634.299 C 179.239 635.838 177.628 639.799 176.029 643.102 C 174.429 646.405 172.586 650.771 171.933 652.804 C 171.281 654.837 170.164 657.175 169.451 658.000 C 168.739 658.825 167.833 660.795 167.438 662.377 C 167.043 663.959 165.208 668.154 163.360 671.700 C 161.512 675.245 160.000 678.590 160.000 679.135 C 160.000 679.679 158.831 682.683 157.402 685.812 C 152.904 695.660 152.000 697.783 152.000 698.493 C 152.000 698.874 151.100 700.329 150.000 701.727 C 148.900 703.126 148.000 704.948 148.000 705.776 C 148.000 706.605 146.200 711.088 144.000 715.740 C 141.800 720.391 140.000 724.727 140.000 725.376 C 140.000 726.024 139.386 727.443 138.635 728.527 C 137.884 729.612 136.926 731.625 136.506 733.000 C 136.086 734.375 134.001 739.203 131.871 743.730 C 129.742 748.256 128.004 752.306 128.008 752.730 C 128.016 753.454 123.014 765.609 119.050 774.500 C 118.069 776.700 115.992 781.875 114.435 786.000 C 112.878 790.125 111.018 794.388 110.302 795.473 C 109.586 796.557 109.000 798.453 109.000 799.685 C 109.000 800.918 108.155 804.080 107.123 806.713 C 103.433 816.123 101.545 831.220 101.522 851.500 C 101.502 868.353 101.758 871.390 103.781 878.376 C 105.036 882.708 106.724 887.195 107.531 888.348 C 108.339 889.502 109.000 890.982 109.000 891.639 C 109.000 894.101 119.079 907.696 124.681 912.791 C 131.849 919.310 139.531 925.172 144.071 927.589 C 148.920 930.170 158.267 933.990 159.746 933.995 C 160.431 933.998 163.581 934.875 166.746 935.944 C 178.985 940.079 224.700 940.863 492.000 941.521 C 704.961 942.046 739.819 941.928 755.000 940.631 C 764.625 939.809 777.000 938.831 782.500 938.458 C 788.806 938.031 793.793 937.134 796.000 936.032 C 797.925 935.070 800.850 933.967 802.500 933.580 C 806.098 932.736 818.197 925.709 822.785 921.799 C 824.591 920.260 826.406 919.000 826.818 919.000 C 828.167 919.000 844.812 902.134 847.918 897.619 C 849.588 895.192 852.793 888.998 855.041 883.854 C 858.711 875.458 859.285 873.015 860.647 860.000 C 861.568 851.206 861.913 842.352 861.524 837.500 C 859.428 811.344 858.911 807.058 857.530 804.410 C 856.695 802.809 856.010 800.690 856.006 799.700 C 856.003 798.711 855.379 796.686 854.620 795.200 C 853.862 793.715 852.919 790.925 852.525 789.000 C 851.913 786.004 848.819 778.366 846.016 772.928 C 845.570 772.064 843.997 768.914 842.521 765.928 C 841.045 762.943 839.439 759.825 838.954 759.000 C 838.468 758.175 836.431 754.350 834.427 750.500 C 832.422 746.650 830.436 743.050 830.013 742.500 C 829.591 741.950 828.910 740.411 828.501 739.079 C 828.092 737.748 826.237 734.282 824.378 731.377 C 822.520 728.473 821.000 725.460 821.000 724.683 C 821.000 723.906 820.183 722.197 819.184 720.885 C 818.186 719.573 815.984 715.800 814.291 712.500 C 809.883 703.905 807.011 698.617 801.687 689.285 C 799.109 684.766 797.000 680.752 797.000 680.363 C 797.000 679.975 796.376 678.947 795.614 678.079 C 794.851 677.210 792.822 673.841 791.103 670.590 C 789.385 667.340 787.579 664.190 787.090 663.590 C 786.601 662.991 784.790 659.800 783.067 656.500 C 781.343 653.200 779.507 649.825 778.988 649.000 C 778.468 648.175 774.096 640.572 769.272 632.104 C 757.307 611.104 756.220 609.293 750.507 600.866 C 743.157 590.022 736.428 581.252 730.381 574.634 C 725.018 568.765 709.512 556.000 707.745 556.000 C 707.230 556.000 703.489 554.425 699.432 552.500 C 694.831 550.316 690.556 549.000 688.065 549.000 C 685.870 549.000 681.791 548.100 679.000 547.000 C 676.209 545.900 672.426 545.000 670.593 545.000 C 668.760 545.000 664.443 545.900 661.000 547.000 C 657.557 548.100 653.111 548.993 651.120 548.986 C 647.490 548.971 636.120 552.031 630.500 554.535 C 628.850 555.271 626.043 556.161 624.261 556.513 C 622.480 556.866 620.760 557.579 620.439 558.099 C 620.117 558.619 617.239 560.365 614.041 561.979 C 610.844 563.593 606.265 566.240 603.864 567.862 C 597.883 571.904 581.822 587.666 576.504 594.712 C 574.102 597.895 571.288 601.625 570.251 603.000 C 564.785 610.245 561.051 617.951 560.053 624.039 C 558.767 631.894 560.447 658.670 562.561 664.000 C 563.325 665.925 565.271 673.030 566.885 679.790 C 568.500 686.549 570.259 692.624 570.795 693.290 C 571.331 693.955 572.091 696.075 572.485 698.000 C 572.878 699.925 574.702 704.650 576.537 708.500 C 578.373 712.350 580.187 717.300 580.569 719.500 C 580.951 721.700 581.661 724.270 582.146 725.212 C 583.502 727.840 580.157 739.001 577.025 742.297 C 575.404 744.004 572.055 745.758 568.434 746.797 C 563.034 748.347 555.482 748.476 484.500 748.230 C 398.618 747.932 389.958 747.443 378.794 742.260 C 370.453 738.387 368.714 735.528 368.651 725.589 C 368.612 719.295 369.134 716.168 371.003 711.500 C 372.325 708.200 373.954 704.825 374.625 704.000 C 375.296 703.175 376.149 701.150 376.521 699.500 C 377.192 696.522 382.399 683.168 385.879 675.500 C 388.836 668.985 394.151 655.837 395.784 651.000 C 396.620 648.525 397.910 645.790 398.652 644.921 C 399.393 644.053 400.000 642.786 400.000 642.107 C 400.000 640.596 403.513 631.817 406.101 626.864 C 407.145 624.864 408.000 622.702 408.000 622.059 C 408.000 621.416 408.900 618.890 410.000 616.445 C 411.100 614.000 412.900 610.000 414.000 607.555 C 415.100 605.110 416.000 602.612 416.000 602.003 C 416.000 601.394 416.838 599.232 417.862 597.198 C 418.886 595.164 421.407 589.900 423.465 585.500 C 434.558 561.785 438.878 554.771 446.848 547.538 C 450.998 543.772 456.605 541.061 460.316 541.026 C 461.864 541.012 464.114 540.438 465.316 539.750 C 466.934 538.824 479.170 538.361 512.500 537.966 L 557.500 537.431 564.665 533.716 C 568.605 531.672 572.655 529.997 573.665 529.993 C 574.674 529.990 576.850 529.093 578.500 528.000 C 580.150 526.907 582.175 526.003 583.000 525.991 C 583.825 525.979 588.528 524.176 593.451 521.985 C 598.375 519.793 603.289 518.000 604.373 518.000 C 605.456 518.000 607.053 517.374 607.921 516.608 C 609.692 515.048 621.943 510.000 623.960 510.000 C 624.677 510.000 626.667 509.151 628.382 508.114 C 630.112 507.067 634.569 505.912 638.393 505.519 C 642.185 505.129 647.079 504.178 649.269 503.405 C 654.960 501.397 701.883 501.378 705.800 503.382 C 707.285 504.142 710.525 505.085 713.000 505.478 C 715.475 505.871 718.625 506.920 720.000 507.811 C 721.375 508.701 724.975 510.686 728.000 512.223 C 734.008 515.275 736.467 516.764 748.610 524.700 C 753.071 527.615 757.030 530.000 757.409 530.000 C 757.787 530.000 760.662 531.687 763.798 533.748 L 769.500 537.496 815.000 537.151 C 850.775 536.879 861.141 536.513 863.500 535.438 C 865.150 534.686 868.300 533.644 870.500 533.123 C 880.534 530.748 886.518 527.923 897.284 520.478 C 904.053 515.797 913.610 504.198 917.351 496.123 C 918.636 493.351 920.185 490.482 920.794 489.748 C 921.403 489.015 922.559 485.509 923.364 481.957 C 924.169 478.406 925.357 473.475 926.004 471.000 C 927.520 465.204 926.757 413.132 925.082 408.000 C 924.453 406.075 923.671 400.000 923.343 394.500 C 922.991 388.597 922.016 382.656 920.964 380.000 C 919.984 377.525 917.958 372.020 916.463 367.766 C 914.967 363.513 913.127 359.520 912.372 358.894 C 911.617 358.267 911.000 357.084 911.000 356.263 C 911.000 352.310 890.320 333.000 886.086 333.000 C 885.197 333.000 882.902 332.177 880.985 331.172 C 879.068 330.166 873.225 328.384 868.000 327.211 C 859.084 325.209 854.966 325.045 801.000 324.551 C 769.375 324.261 738.550 323.584 732.500 323.047 C 713.510 321.360 518.257 320.011 315.500 320.166 C 208.250 320.249 114.425 320.644 107.000 321.046 "/></g>
<g fill="#00D6FFFF" stroke="#00D6FFFF">
<path d="M 1474.828 515.477 C 1474.458 515.862 1466.181 516.586 1456.433 517.086 C 1445.615 517.641 1438.158 518.454 1437.292 519.173 C 1435.557 520.612 1426.861 523.828 1421.721 524.931 C 1419.643 525.377 1417.168 526.399 1416.221 527.202 C 1415.275 528.004 1412.439 529.420 1409.920 530.348 C 1407.402 531.276 1403.993 533.040 1402.345 534.268 C 1399.324 536.519 1389.997 547.107 1384.523 554.500 C 1378.699 562.365 1372.885 567.867 1369.671 568.553 C 1367.927 568.926 1365.905 569.711 1365.178 570.298 C 1363.305 571.809 1352.817 575.990 1350.885 575.995 C 1349.997 575.998 1348.197 576.838 1346.885 577.862 C 1345.573 578.887 1343.375 580.066 1342.000 580.483 C 1339.630 581.202 1333.361 584.025 1317.500 591.513 C 1304.807 597.506 1299.460 599.691 1295.808 600.376 C 1293.824 600.748 1291.651 601.716 1290.978 602.526 C 1290.305 603.337 1288.663 604.000 1287.328 604.000 C 1285.993 604.000 1283.528 604.710 1281.851 605.577 C 1279.736 606.671 1274.766 607.321 1265.650 607.699 C 1258.418 607.998 1250.043 608.863 1247.040 609.621 C 1240.004 611.398 1230.543 611.380 1224.928 609.581 C 1222.493 608.800 1215.325 607.913 1209.000 607.609 C 1199.977 607.177 1195.992 606.492 1190.500 604.432 C 1186.650 602.987 1181.718 601.144 1179.540 600.336 C 1177.363 599.527 1174.438 598.252 1173.040 597.501 C 1171.643 596.751 1168.250 595.105 1165.500 593.844 C 1162.750 592.583 1159.427 590.752 1158.115 589.775 C 1156.803 588.799 1154.897 588.000 1153.879 588.000 C 1152.861 588.000 1148.534 586.201 1144.264 584.002 C 1139.994 581.803 1136.144 580.003 1135.710 580.002 C 1135.275 580.001 1133.550 578.988 1131.876 577.750 C 1129.015 575.635 1127.863 575.500 1112.666 575.500 C 1096.723 575.500 1096.417 575.541 1090.500 578.489 C 1081.420 583.011 1071.926 589.363 1067.831 593.654 C 1063.356 598.345 1056.004 612.090 1055.988 615.798 C 1055.982 617.284 1055.087 622.100 1054.000 626.500 C 1052.586 632.225 1052.024 637.913 1052.024 646.500 C 1052.024 655.087 1052.586 660.775 1054.000 666.500 C 1055.087 670.900 1055.982 676.075 1055.988 678.000 C 1055.995 680.088 1057.682 684.864 1060.169 689.838 C 1063.456 696.413 1065.753 699.443 1071.034 704.171 C 1077.784 710.214 1086.384 716.498 1091.000 718.760 C 1092.375 719.434 1094.175 720.374 1095.000 720.849 C 1097.498 722.286 1109.238 725.827 1113.500 726.429 C 1117.640 727.013 1168.318 728.579 1227.500 729.953 C 1258.221 730.666 1262.140 730.948 1268.134 732.883 C 1273.615 734.653 1274.981 735.540 1275.997 737.993 C 1277.489 741.596 1276.619 745.668 1273.676 748.858 C 1269.904 752.946 1252.844 759.663 1243.583 760.707 C 1240.787 761.022 1237.177 761.948 1235.559 762.764 C 1232.978 764.067 1225.017 766.047 1210.107 769.095 C 1207.690 769.589 1205.119 770.486 1204.393 771.089 C 1203.667 771.691 1198.669 772.552 1193.287 773.003 C 1187.904 773.453 1181.039 774.536 1178.032 775.411 C 1175.025 776.285 1169.625 777.011 1166.032 777.024 C 1162.439 777.037 1157.700 777.473 1155.500 777.993 C 1153.300 778.513 1143.625 779.423 1134.000 780.014 C 1124.375 780.605 1114.700 781.528 1112.500 782.064 C 1110.300 782.600 1104.127 783.692 1098.783 784.490 C 1093.439 785.289 1088.264 786.393 1087.283 786.946 C 1086.302 787.498 1082.622 789.120 1079.103 790.549 C 1071.868 793.490 1061.239 801.536 1055.927 808.095 C 1050.638 814.626 1044.375 828.398 1043.011 836.500 C 1042.363 840.350 1041.447 845.525 1040.976 848.000 C 1039.535 855.570 1039.888 876.838 1041.583 884.500 C 1042.434 888.350 1043.366 893.300 1043.655 895.500 C 1044.410 901.267 1051.463 915.513 1057.040 922.537 C 1065.644 933.374 1079.159 941.923 1097.500 948.131 C 1104.408 950.469 1105.006 950.499 1143.000 950.400 C 1179.094 950.307 1181.996 950.166 1189.438 948.150 C 1193.804 946.968 1199.654 945.973 1202.438 945.940 C 1205.222 945.908 1209.750 945.453 1212.500 944.929 C 1215.250 944.406 1221.775 943.288 1227.000 942.446 C 1232.225 941.603 1238.075 940.507 1240.000 940.008 C 1241.925 939.510 1247.550 938.812 1252.500 938.458 C 1257.450 938.103 1264.425 936.982 1268.000 935.966 C 1271.575 934.951 1277.425 933.367 1281.000 932.447 C 1292.469 929.496 1304.414 925.912 1307.500 924.497 C 1315.781 920.700 1320.012 918.999 1321.195 918.994 C 1321.913 918.990 1323.842 918.288 1325.482 917.433 C 1327.122 916.578 1331.397 914.758 1334.982 913.390 C 1338.567 912.021 1343.425 910.024 1345.777 908.951 C 1348.129 907.878 1350.841 907.000 1351.804 907.000 C 1352.767 907.000 1354.512 906.329 1355.682 905.510 C 1356.852 904.690 1361.547 902.642 1366.116 900.957 C 1370.684 899.273 1374.958 897.450 1375.614 896.905 C 1376.270 896.361 1378.193 895.518 1379.888 895.032 C 1383.083 894.116 1440.932 856.077 1444.547 852.516 C 1445.672 851.407 1452.651 844.650 1460.056 837.500 C 1467.460 830.350 1479.595 818.619 1487.023 811.432 C 1503.425 795.559 1508.596 792.628 1519.194 793.199 C 1524.884 793.505 1526.457 794.020 1529.686 796.634 C 1536.324 802.006 1536.427 808.196 1530.099 821.500 C 1528.530 824.800 1524.896 832.644 1522.024 838.932 L 1516.803 850.364 1518.454 853.826 C 1522.205 861.692 1532.366 872.720 1539.458 876.624 C 1540.581 877.242 1544.650 879.502 1548.500 881.645 C 1552.350 883.789 1560.225 887.718 1566.000 890.376 C 1571.775 893.035 1578.300 896.055 1580.500 897.087 C 1582.700 898.120 1587.424 900.150 1590.998 901.599 C 1594.572 903.049 1598.385 904.857 1599.471 905.617 C 1600.557 906.378 1602.370 907.000 1603.500 907.000 C 1604.630 907.000 1606.443 907.586 1607.527 908.302 C 1608.612 909.018 1612.875 910.916 1617.000 912.519 C 1621.125 914.122 1625.850 916.235 1627.500 917.213 C 1629.150 918.192 1631.075 918.994 1631.778 918.996 C 1632.482 918.998 1636.385 920.580 1640.454 922.510 C 1644.522 924.441 1649.346 926.275 1651.175 926.586 C 1653.004 926.897 1656.075 927.761 1658.000 928.507 C 1659.925 929.253 1667.125 931.080 1674.000 932.567 C 1680.875 934.055 1687.625 935.825 1689.000 936.500 C 1690.375 937.175 1693.975 938.036 1697.000 938.412 C 1700.025 938.789 1704.750 939.737 1707.500 940.520 C 1723.546 945.086 1727.296 945.881 1735.036 946.352 C 1739.730 946.638 1746.255 947.549 1749.536 948.375 C 1752.816 949.202 1762.475 950.374 1771.000 950.980 C 1779.525 951.586 1789.875 952.537 1794.000 953.093 C 1798.125 953.650 1812.300 954.194 1825.500 954.303 C 1848.537 954.492 1849.781 954.403 1856.500 952.087 C 1871.535 946.904 1883.126 938.936 1894.263 926.128 C 1900.191 919.311 1909.000 903.242 1909.000 899.246 C 1909.000 898.015 1909.952 894.257 1911.115 890.895 C 1912.961 885.562 1913.231 882.514 1913.231 866.976 C 1913.231 852.501 1912.925 848.556 1911.597 845.893 C 1910.698 844.092 1909.694 840.791 1909.367 838.559 C 1909.039 836.326 1907.745 832.925 1906.491 831.000 C 1905.237 829.075 1903.075 825.700 1901.686 823.500 C 1894.659 812.368 1881.746 803.313 1866.000 798.476 C 1862.975 797.546 1858.141 795.893 1855.258 794.801 C 1852.375 793.709 1845.783 792.453 1840.610 792.009 C 1835.438 791.566 1829.696 790.736 1827.853 790.165 C 1826.009 789.593 1821.350 788.673 1817.500 788.119 C 1813.650 787.565 1807.575 786.654 1804.000 786.094 C 1800.425 785.533 1793.675 784.666 1789.000 784.167 C 1784.325 783.667 1779.150 782.776 1777.500 782.187 C 1775.850 781.597 1770.225 780.662 1765.000 780.110 C 1755.024 779.055 1745.023 776.668 1741.555 774.514 C 1740.425 773.812 1737.217 772.990 1734.427 772.687 C 1731.636 772.384 1727.811 771.479 1725.927 770.676 C 1724.042 769.872 1719.125 768.245 1715.000 767.060 C 1710.875 765.874 1705.836 764.026 1703.802 762.952 C 1701.768 761.878 1699.606 761.000 1698.997 761.000 C 1695.362 761.000 1680.717 752.208 1678.996 748.992 C 1676.335 744.020 1680.320 739.126 1689.186 736.478 C 1695.051 734.726 1700.940 734.550 1772.000 734.006 C 1841.299 733.476 1848.850 733.260 1852.218 731.711 C 1854.263 730.770 1857.159 730.000 1858.654 730.000 C 1862.382 730.000 1875.649 726.192 1879.947 723.888 C 1881.885 722.850 1884.042 722.000 1884.742 722.000 C 1885.441 722.000 1889.101 718.963 1892.876 715.250 C 1898.110 710.102 1900.839 706.309 1904.370 699.270 C 1906.916 694.193 1909.000 688.763 1909.000 687.202 C 1909.000 685.642 1909.889 681.020 1910.976 676.932 C 1913.226 668.473 1913.753 646.466 1911.872 639.500 C 1911.279 637.300 1910.346 632.350 1909.800 628.500 C 1908.592 619.991 1902.478 607.190 1896.161 599.948 C 1887.462 589.975 1875.163 583.392 1860.607 580.917 C 1850.841 579.256 1843.083 580.312 1835.124 584.385 C 1828.580 587.733 1819.176 592.192 1807.500 597.483 C 1804.200 598.979 1800.150 600.817 1798.500 601.568 C 1789.243 605.783 1780.886 607.893 1773.200 607.956 C 1770.115 607.982 1766.563 608.731 1764.700 609.750 C 1761.868 611.299 1757.644 611.536 1727.937 611.809 C 1698.555 612.080 1693.821 611.911 1689.937 610.453 C 1687.497 609.536 1681.747 608.401 1677.159 607.931 C 1669.643 607.160 1661.064 604.744 1656.272 602.048 C 1655.297 601.499 1652.925 600.369 1651.000 599.535 C 1645.685 597.234 1636.753 592.040 1634.436 589.903 C 1633.300 588.857 1631.724 588.000 1630.932 588.000 C 1630.141 588.000 1627.278 586.425 1624.571 584.500 C 1621.863 582.575 1619.119 581.000 1618.473 581.000 C 1617.827 581.000 1615.182 579.875 1612.596 578.500 C 1610.010 577.125 1607.364 576.000 1606.716 576.000 C 1604.565 576.000 1594.561 571.610 1590.402 568.841 C 1588.148 567.341 1583.198 562.174 1579.402 557.361 C 1569.151 544.362 1564.232 539.373 1556.803 534.444 C 1553.120 532.000 1549.693 530.000 1549.188 530.000 C 1548.683 530.000 1547.187 529.148 1545.863 528.107 C 1544.540 527.066 1539.867 524.995 1535.479 523.504 C 1531.090 522.013 1526.470 520.143 1525.212 519.348 C 1523.695 518.391 1517.797 517.582 1507.712 516.950 C 1499.345 516.425 1488.675 515.722 1484.000 515.387 C 1479.325 515.052 1475.198 515.092 1474.828 515.477 "/></g>
<g fill="#00D6FFFF" stroke="#00D6FFFF">
<path d="M 630.000 1034.115 C 613.091 1034.886 602.841 1037.433 589.526 1044.173 C 576.508 1050.763 573.396 1054.571 557.797 1083.000 C 555.567 1087.064 550.201 1091.135 544.500 1093.089 C 541.259 1094.199 526.371 1094.470 466.000 1094.516 C 393.357 1094.571 391.319 1094.625 384.242 1096.674 C 368.385 1101.265 356.441 1112.394 351.156 1127.500 C 346.913 1139.631 347.111 1162.399 351.577 1175.800 C 354.834 1185.571 362.230 1196.166 368.775 1200.434 C 384.616 1210.765 433.516 1215.651 507.500 1214.294 C 529.987 1213.882 541.135 1214.051 545.000 1214.864 C 556.824 1217.351 562.276 1222.238 564.861 1232.664 C 565.961 1237.101 565.922 1238.250 564.585 1240.835 C 562.919 1244.058 558.083 1248.000 555.796 1248.000 C 555.028 1248.000 553.973 1248.374 553.450 1248.831 C 550.280 1251.606 542.799 1252.000 493.310 1252.000 C 442.027 1252.000 432.876 1252.497 417.000 1256.141 C 406.053 1258.653 393.941 1264.619 386.732 1271.048 C 377.971 1278.861 369.003 1292.338 366.799 1301.000 C 361.702 1321.032 361.084 1329.024 359.992 1389.060 C 358.664 1462.069 358.713 1519.136 360.113 1531.500 C 363.923 1565.133 378.692 1579.431 413.289 1582.982 C 437.770 1585.494 466.925 1582.998 484.000 1576.928 C 491.263 1574.346 497.272 1569.336 506.701 1558.001 C 511.962 1551.676 517.147 1545.885 518.222 1545.132 C 527.825 1538.406 548.790 1538.261 561.670 1544.832 C 563.840 1545.939 568.739 1550.367 572.556 1554.672 C 586.772 1570.707 587.263 1571.141 595.500 1574.951 C 608.488 1580.958 614.894 1582.411 628.500 1582.435 C 641.819 1582.458 647.538 1581.078 655.149 1576.008 C 658.689 1573.649 661.363 1570.004 669.500 1556.448 C 679.537 1539.725 682.514 1536.243 692.760 1529.241 C 705.403 1520.602 714.466 1516.862 727.500 1514.905 C 750.836 1511.402 765.657 1511.808 774.672 1516.197 C 777.760 1517.701 782.995 1525.354 784.685 1530.836 C 785.476 1533.401 786.529 1538.875 787.026 1543.000 C 789.063 1559.923 791.595 1566.528 798.473 1572.869 C 803.960 1577.926 809.576 1580.473 821.093 1583.127 C 828.674 1584.874 832.382 1585.058 852.593 1584.697 C 865.192 1584.471 877.931 1583.788 880.902 1583.180 C 906.306 1577.973 919.158 1567.377 926.522 1545.565 C 927.277 1543.329 928.570 1536.325 929.397 1530.000 C 932.251 1508.155 934.303 1342.022 931.972 1321.500 C 930.078 1304.822 926.270 1294.804 917.296 1282.890 C 911.645 1275.388 902.443 1267.023 896.741 1264.204 C 888.559 1260.159 876.166 1257.215 864.500 1256.545 C 858.450 1256.197 831.450 1255.486 804.500 1254.964 C 753.681 1253.980 742.302 1253.063 736.207 1249.463 C 731.664 1246.780 729.626 1241.910 730.303 1235.357 C 731.307 1225.625 736.424 1219.645 745.500 1217.598 C 747.700 1217.101 789.775 1216.384 839.000 1216.004 C 897.307 1215.554 930.068 1214.936 933.000 1214.232 C 942.390 1211.976 944.658 1211.235 950.147 1208.631 C 966.275 1200.980 975.000 1184.525 975.000 1161.758 C 975.000 1154.225 973.557 1143.426 971.458 1135.251 C 968.212 1122.611 957.832 1108.491 948.591 1104.148 C 942.850 1101.449 939.175 1101.438 933.508 1104.101 C 929.000 1106.220 927.938 1107.540 922.122 1118.250 C 910.997 1138.738 904.389 1150.195 900.263 1156.150 C 891.691 1168.523 871.834 1181.964 853.000 1188.144 C 844.482 1190.939 842.208 1191.267 831.000 1191.317 C 820.611 1191.363 817.450 1191.003 812.282 1189.186 C 808.861 1187.984 805.578 1187.000 804.984 1187.000 C 803.079 1187.000 783.660 1177.485 775.450 1172.528 C 754.866 1160.100 721.404 1134.126 703.914 1117.000 C 691.825 1105.163 689.559 1096.387 696.308 1087.548 C 701.649 1080.553 702.665 1076.025 700.650 1068.198 C 697.714 1056.792 688.448 1043.697 680.500 1039.719 C 670.423 1034.675 655.075 1032.972 630.000 1034.115 M 768.000 1431.379 C 784.860 1433.655 790.838 1438.897 793.940 1454.122 C 794.908 1458.870 794.831 1460.383 793.442 1463.853 C 789.880 1472.756 779.766 1475.701 749.500 1476.649 C 722.273 1477.501 716.716 1474.108 716.578 1456.547 C 716.509 1447.849 718.338 1442.802 723.200 1438.266 C 726.343 1435.334 736.124 1432.019 741.907 1431.926 C 744.433 1431.885 748.525 1431.491 751.000 1431.051 C 757.244 1429.940 757.355 1429.942 768.000 1431.379 M 780.000 1336.523 C 790.070 1338.748 795.000 1345.885 795.000 1358.238 C 795.000 1365.140 794.908 1365.398 791.156 1368.966 C 786.991 1372.929 776.222 1377.008 769.972 1376.990 C 768.062 1376.985 762.200 1377.513 756.945 1378.163 C 749.311 1379.108 745.525 1379.079 738.110 1378.016 C 726.487 1376.350 723.288 1374.367 720.281 1366.963 C 716.376 1357.350 717.547 1350.233 724.296 1342.563 C 726.682 1339.852 730.179 1337.062 732.067 1336.364 C 735.838 1334.970 773.537 1335.095 780.000 1336.523 M 551.929 1431.101 C 558.558 1433.143 563.945 1436.239 566.334 1439.378 C 571.072 1445.601 573.000 1450.660 573.000 1456.871 C 573.000 1462.276 572.720 1463.058 569.954 1465.385 C 565.172 1469.409 555.354 1471.891 539.631 1473.050 C 521.825 1474.363 509.381 1473.180 504.074 1469.668 C 501.225 1467.782 499.975 1465.882 498.111 1460.602 C 495.159 1452.240 495.547 1445.795 499.347 1440.052 C 504.254 1432.637 512.313 1430.325 533.929 1430.130 C 542.003 1430.057 549.931 1430.485 551.929 1431.101 M 556.709 1333.277 C 570.207 1336.928 576.032 1347.278 571.314 1359.230 C 567.817 1368.090 562.681 1372.041 552.114 1374.001 C 542.414 1375.800 517.390 1374.500 510.500 1371.839 C 502.168 1368.621 498.000 1362.673 498.000 1354.000 C 498.000 1345.509 502.100 1339.329 510.170 1335.653 C 519.575 1331.370 544.883 1330.078 556.709 1333.277 "/></g>
<g fill="#00D6FFFF" stroke="#00D6FFFF">
<path d="M 1374.500 1245.571 C 1359.554 1247.539 1355.281 1248.437 1346.500 1251.458 C 1324.949 1258.871 1316.838 1265.120 1299.067 1288.000 C 1282.916 1308.796 1281.347 1311.531 1275.357 1329.355 C 1266.262 1356.416 1262.573 1362.714 1246.555 1378.532 C 1239.776 1385.227 1235.349 1388.634 1229.454 1391.695 C 1216.345 1398.502 1199.579 1403.430 1184.000 1405.056 C 1172.845 1406.220 1160.724 1407.586 1149.000 1408.998 C 1143.775 1409.628 1136.350 1410.520 1132.500 1410.981 C 1114.556 1413.127 1102.658 1419.128 1090.433 1432.196 C 1084.724 1438.299 1077.000 1451.564 1077.000 1455.266 C 1077.000 1456.155 1076.550 1457.160 1076.000 1457.500 C 1075.450 1457.840 1075.000 1459.412 1075.000 1460.994 C 1075.000 1462.576 1074.589 1464.951 1074.087 1466.272 C 1072.283 1471.015 1071.025 1493.163 1072.028 1502.500 C 1073.443 1515.677 1076.539 1522.842 1083.200 1528.361 C 1089.876 1533.892 1102.397 1534.973 1116.500 1531.237 C 1120.900 1530.071 1128.100 1528.170 1132.500 1527.011 C 1140.464 1524.914 1151.430 1522.511 1160.000 1520.986 C 1162.475 1520.546 1167.425 1519.481 1171.000 1518.619 C 1174.575 1517.758 1179.975 1516.542 1183.000 1515.917 C 1199.942 1512.420 1223.462 1506.634 1230.000 1504.357 C 1232.475 1503.494 1235.850 1502.427 1237.500 1501.984 C 1239.150 1501.541 1244.325 1500.023 1249.000 1498.610 C 1255.061 1496.779 1259.824 1496.036 1265.600 1496.021 C 1273.027 1496.002 1274.044 1496.249 1277.834 1498.995 C 1281.823 1501.884 1285.000 1507.248 1285.000 1511.092 C 1285.000 1513.378 1281.367 1519.979 1279.146 1521.728 C 1276.801 1523.574 1268.205 1527.428 1263.500 1528.741 C 1257.129 1530.520 1244.771 1534.093 1241.500 1535.101 C 1239.850 1535.610 1231.300 1538.051 1222.500 1540.526 C 1213.700 1543.001 1204.250 1545.742 1201.500 1546.617 C 1198.750 1547.492 1195.150 1548.581 1193.500 1549.036 C 1184.850 1551.423 1165.810 1556.400 1161.000 1557.533 C 1150.335 1560.043 1134.465 1564.030 1131.500 1564.943 C 1129.850 1565.451 1126.475 1566.353 1124.000 1566.949 C 1111.775 1569.890 1101.350 1573.668 1093.148 1578.132 C 1075.316 1587.836 1062.505 1602.677 1056.144 1621.000 C 1049.231 1640.913 1049.386 1673.748 1056.491 1694.500 C 1061.947 1710.436 1075.220 1726.493 1090.793 1735.995 C 1095.324 1738.759 1097.001 1739.219 1102.447 1739.187 C 1109.023 1739.150 1113.182 1737.666 1116.267 1734.258 C 1118.202 1732.119 1121.000 1722.544 1121.000 1718.058 C 1121.000 1716.494 1121.638 1711.903 1122.417 1707.857 C 1123.196 1703.811 1124.811 1694.200 1126.006 1686.500 C 1128.440 1670.821 1130.465 1664.135 1135.999 1653.502 C 1144.855 1636.486 1156.864 1620.144 1166.000 1612.673 C 1176.034 1604.467 1193.907 1596.984 1208.500 1594.878 C 1237.036 1590.760 1225.731 1590.905 1482.500 1591.375 C 1643.863 1591.671 1729.717 1592.179 1736.000 1592.876 C 1741.225 1593.456 1750.000 1594.353 1755.500 1594.869 C 1773.013 1596.513 1787.664 1600.724 1803.969 1608.800 C 1811.562 1612.562 1815.282 1615.254 1822.748 1622.391 C 1835.950 1635.012 1849.763 1653.982 1853.774 1665.000 C 1857.841 1676.170 1859.033 1682.561 1860.882 1703.115 C 1862.953 1726.129 1863.822 1728.145 1872.519 1730.092 C 1876.881 1731.068 1878.854 1731.061 1882.207 1730.056 C 1891.708 1727.210 1905.962 1715.349 1913.295 1704.188 C 1931.130 1677.044 1931.946 1617.833 1914.877 1589.389 C 1911.055 1583.020 1899.208 1571.581 1892.783 1568.057 C 1880.116 1561.109 1868.860 1556.550 1855.500 1552.957 C 1851.100 1551.773 1846.466 1550.399 1845.203 1549.903 C 1843.940 1549.406 1841.963 1549.000 1840.811 1549.000 C 1839.658 1549.000 1835.742 1548.157 1832.108 1547.127 C 1828.474 1546.097 1822.800 1544.685 1819.500 1543.988 C 1811.182 1542.232 1798.286 1539.172 1793.500 1537.818 C 1791.300 1537.195 1787.700 1536.342 1785.500 1535.922 C 1775.104 1533.936 1766.412 1531.757 1765.550 1530.922 C 1765.027 1530.415 1763.501 1530.000 1762.158 1530.000 C 1759.047 1530.000 1746.760 1526.444 1741.359 1523.981 C 1739.081 1522.942 1736.268 1520.885 1735.108 1519.411 C 1732.405 1515.974 1730.570 1509.851 1731.332 1506.814 C 1732.197 1503.366 1738.107 1496.846 1747.401 1489.082 C 1761.511 1477.297 1788.449 1445.016 1796.007 1430.835 C 1801.533 1420.467 1799.159 1411.857 1789.571 1407.500 C 1786.782 1406.233 1775.796 1401.473 1765.157 1396.922 C 1739.399 1385.905 1732.191 1380.837 1723.111 1367.360 C 1717.216 1358.610 1713.778 1350.434 1709.504 1335.000 C 1707.448 1327.575 1704.918 1318.838 1703.883 1315.585 C 1702.847 1312.332 1701.985 1308.957 1701.967 1308.085 C 1701.921 1305.904 1697.068 1299.113 1693.846 1296.722 C 1692.080 1295.412 1688.567 1294.478 1683.346 1293.931 C 1679.031 1293.478 1640.452 1293.084 1597.616 1293.054 C 1541.188 1293.015 1518.656 1292.678 1515.828 1291.830 C 1513.680 1291.187 1509.526 1288.599 1506.597 1286.080 C 1486.194 1268.536 1481.714 1264.974 1475.325 1261.218 C 1471.379 1258.898 1467.644 1257.000 1467.026 1257.000 C 1466.407 1257.000 1464.621 1256.338 1463.057 1255.530 C 1459.890 1253.892 1442.963 1249.123 1436.000 1247.907 C 1412.488 1243.800 1393.440 1243.077 1374.500 1245.571 M 1530.000 1416.560 C 1543.586 1419.383 1549.403 1424.758 1546.457 1431.765 C 1543.445 1438.927 1528.840 1451.588 1517.158 1457.163 C 1511.608 1459.812 1509.944 1460.157 1504.629 1459.762 C 1493.572 1458.941 1483.160 1453.671 1471.785 1443.140 C 1465.147 1436.995 1463.000 1433.532 1463.000 1428.973 C 1463.000 1422.315 1472.793 1417.062 1485.432 1416.942 C 1488.769 1416.911 1493.300 1416.512 1495.500 1416.057 C 1502.481 1414.613 1522.001 1414.898 1530.000 1416.560 "/></g>
<g fill="#00D6FFFF" stroke="#00D6FFFF">
<path d="M 1436.000 1629.035 C 1259.663 1629.776 1224.548 1630.414 1216.348 1633.025 C 1205.487 1636.484 1197.691 1641.004 1192.247 1647.000 C 1179.025 1661.562 1169.503 1679.777 1165.846 1697.500 C 1164.238 1705.294 1162.711 1747.871 1162.600 1788.000 C 1162.496 1825.963 1163.317 1848.608 1165.139 1858.000 C 1169.630 1881.157 1185.266 1903.633 1202.386 1911.543 C 1217.564 1918.555 1232.590 1921.498 1265.500 1923.903 C 1272.680 1924.428 1372.740 1925.125 1489.000 1925.460 C 1708.657 1926.093 1709.703 1926.079 1743.000 1922.062 C 1762.388 1919.723 1782.143 1911.197 1797.490 1898.545 C 1811.961 1886.615 1817.221 1876.748 1820.968 1854.500 C 1823.332 1840.463 1823.548 1820.775 1821.987 1761.500 C 1820.741 1714.176 1819.918 1705.302 1814.859 1684.655 C 1809.507 1662.810 1795.669 1646.735 1775.051 1638.411 C 1771.448 1636.957 1767.600 1635.400 1766.500 1634.951 C 1765.400 1634.503 1763.150 1633.914 1761.500 1633.642 C 1759.850 1633.370 1752.875 1632.168 1746.000 1630.972 C 1734.290 1628.934 1729.868 1628.780 1676.000 1628.533 C 1644.375 1628.387 1536.375 1628.614 1436.000 1629.035 M 1567.500 1753.819 C 1605.757 1754.439 1609.812 1754.666 1613.000 1756.362 C 1627.318 1763.979 1628.751 1778.921 1616.032 1787.977 C 1609.015 1792.974 1608.421 1793.002 1511.701 1792.972 C 1450.607 1792.952 1412.463 1792.505 1393.494 1791.587 C 1363.560 1790.137 1360.652 1789.591 1356.000 1784.547 C 1353.777 1782.136 1353.511 1781.015 1353.602 1774.435 C 1353.689 1768.146 1354.104 1766.457 1356.366 1763.193 C 1360.178 1757.692 1365.991 1754.775 1376.000 1753.341 C 1384.765 1752.085 1474.360 1752.308 1567.500 1753.819 "/></g>
<g fill="#00D6FFFF" stroke="#00D6FFFF">
<path d="M 214.500 1033.953 C 200.276 1035.146 186.427 1038.855 178.000 1043.729 C 173.053 1046.590 166.450 1053.149 161.838 1059.781 C 157.957 1065.362 153.007 1077.431 152.976 1081.388 C 152.962 1083.099 152.471 1086.525 151.885 1089.000 C 151.260 1091.638 150.481 1115.847 150.001 1147.500 C 149.136 1204.627 148.999 1206.200 144.091 1215.822 C 142.937 1218.083 141.081 1220.421 139.966 1221.018 C 137.184 1222.507 123.281 1227.000 121.456 1227.000 C 120.640 1227.000 119.191 1227.432 118.236 1227.960 C 117.281 1228.488 112.612 1230.088 107.860 1231.515 C 103.107 1232.942 97.163 1235.413 94.651 1237.007 C 90.284 1239.776 84.702 1246.242 83.003 1250.500 C 82.564 1251.600 80.785 1255.548 79.050 1259.274 C 68.342 1282.271 67.814 1285.531 68.224 1326.000 C 68.497 1352.923 68.718 1356.199 70.755 1363.500 C 73.664 1373.929 78.546 1386.935 81.605 1392.408 C 86.802 1401.707 100.236 1411.000 108.481 1411.000 C 110.365 1411.000 112.940 1411.402 114.203 1411.893 C 115.466 1412.385 120.050 1413.325 124.389 1413.982 C 132.992 1415.285 141.216 1419.059 144.191 1423.069 C 145.183 1424.406 146.698 1428.200 147.557 1431.500 C 148.901 1436.664 149.041 1443.489 148.558 1480.500 C 147.355 1572.818 146.856 1871.410 147.898 1875.472 C 148.466 1877.687 149.868 1883.408 151.014 1888.183 C 156.130 1909.520 166.049 1921.427 185.500 1929.583 C 193.110 1932.773 206.659 1934.868 224.500 1935.611 C 246.925 1936.546 270.153 1934.154 283.000 1929.588 C 301.565 1922.990 311.526 1912.314 319.186 1890.806 L 322.500 1881.500 322.500 1822.500 L 322.500 1763.500 320.048 1757.500 C 318.699 1754.200 315.324 1747.880 312.548 1743.455 C 309.771 1739.031 306.963 1734.531 306.307 1733.455 C 305.651 1732.380 302.224 1726.775 298.692 1721.000 C 290.560 1707.702 289.310 1705.232 286.894 1697.669 C 282.857 1685.035 282.002 1678.107 282.001 1658.052 C 282.000 1631.625 284.455 1614.548 290.707 1597.500 C 294.069 1588.332 297.012 1582.989 306.682 1568.500 C 316.021 1554.506 317.015 1552.738 318.193 1548.024 C 320.936 1537.048 321.313 1530.032 321.956 1478.000 C 323.109 1384.674 324.901 1314.456 326.437 1302.399 C 327.689 1292.577 328.767 1289.005 335.790 1271.399 C 344.458 1249.671 345.569 1245.627 344.002 1241.506 C 343.429 1239.998 337.495 1230.876 330.816 1221.235 C 314.777 1198.081 310.489 1189.734 308.307 1177.421 C 306.828 1169.074 306.760 1166.091 307.774 1154.173 C 308.887 1141.095 309.513 1137.672 314.112 1119.500 C 315.225 1115.100 316.525 1109.925 317.000 1108.000 C 317.475 1106.075 318.614 1101.800 319.531 1098.500 C 320.448 1095.200 321.570 1090.700 322.024 1088.500 C 322.478 1086.300 323.321 1082.700 323.898 1080.500 C 325.339 1075.004 323.324 1069.285 316.960 1060.814 C 306.132 1046.401 297.389 1040.973 277.000 1036.003 C 270.022 1034.302 264.471 1033.866 246.000 1033.565 C 233.625 1033.364 219.450 1033.538 214.500 1033.953 "/></g>
<g fill="#00D6FFFF" stroke="#00D6FFFF">
<path d="M 1448.000 1045.586 C 1439.475 1046.310 1430.873 1047.375 1428.884 1047.951 C 1426.895 1048.528 1424.064 1049.000 1422.593 1049.000 C 1421.122 1049.000 1416.899 1049.943 1413.209 1051.096 C 1392.289 1057.633 1385.534 1060.831 1377.884 1067.823 C 1373.332 1071.983 1371.627 1074.636 1367.080 1084.631 C 1364.111 1091.159 1360.396 1099.288 1358.825 1102.696 C 1355.911 1109.017 1351.206 1113.734 1344.000 1117.559 C 1340.684 1119.320 1335.447 1119.451 1244.500 1120.050 C 1149.504 1120.676 1144.406 1120.856 1127.000 1124.198 C 1111.762 1127.125 1097.940 1132.571 1087.146 1139.901 C 1075.473 1147.828 1063.287 1163.305 1057.935 1177.000 C 1056.753 1180.025 1055.418 1183.400 1054.968 1184.500 C 1054.518 1185.600 1053.907 1187.625 1053.610 1189.000 C 1053.312 1190.375 1052.411 1194.425 1051.607 1198.000 C 1048.931 1209.895 1048.000 1226.030 1048.031 1259.924 C 1048.063 1294.671 1049.198 1310.629 1052.525 1323.132 C 1055.927 1335.917 1060.234 1344.084 1067.851 1352.195 C 1074.551 1359.329 1082.712 1364.091 1094.000 1367.452 C 1097.025 1368.353 1100.882 1369.519 1102.571 1370.045 C 1104.260 1370.570 1107.506 1371.000 1109.785 1371.000 C 1112.064 1371.000 1118.502 1371.520 1124.092 1372.156 C 1131.898 1373.043 1139.042 1373.025 1154.878 1372.076 C 1188.383 1370.068 1202.006 1366.012 1215.046 1354.159 C 1227.330 1342.993 1231.994 1333.245 1238.086 1306.000 C 1240.262 1296.265 1241.360 1293.123 1244.047 1288.932 C 1248.769 1281.566 1292.296 1239.200 1301.500 1233.011 C 1310.531 1226.939 1327.479 1218.000 1329.960 1218.000 C 1330.862 1218.000 1332.028 1217.591 1332.550 1217.091 C 1333.498 1216.183 1339.603 1214.183 1350.000 1211.372 C 1373.123 1205.122 1414.372 1203.337 1439.000 1207.521 C 1452.680 1209.845 1467.274 1213.525 1474.500 1216.473 C 1476.150 1217.146 1479.975 1218.508 1483.000 1219.500 C 1486.025 1220.493 1490.559 1222.329 1493.074 1223.580 C 1497.025 1225.545 1524.732 1243.999 1529.000 1247.508 C 1532.392 1250.296 1539.905 1253.769 1546.233 1255.474 C 1552.588 1257.186 1555.646 1257.223 1600.733 1256.132 C 1627.005 1255.497 1663.605 1254.982 1682.068 1254.988 C 1719.349 1255.001 1726.110 1255.867 1734.326 1261.680 C 1740.810 1266.268 1742.394 1269.165 1743.146 1277.808 C 1743.514 1282.039 1744.796 1292.925 1745.994 1302.000 C 1747.192 1311.075 1748.485 1321.650 1748.868 1325.500 C 1750.617 1343.104 1763.433 1357.197 1784.216 1364.370 C 1799.231 1369.552 1807.855 1370.500 1840.000 1370.500 C 1872.592 1370.500 1882.137 1369.417 1894.140 1364.357 C 1907.452 1358.745 1922.358 1339.380 1927.514 1321.000 C 1928.724 1316.685 1929.538 1311.647 1932.037 1293.000 C 1933.184 1284.440 1932.846 1227.424 1931.592 1218.000 C 1931.263 1215.525 1930.495 1209.675 1929.887 1205.000 C 1927.413 1186.001 1923.058 1175.294 1912.303 1161.774 C 1899.282 1145.405 1877.365 1133.383 1852.500 1128.969 C 1849.750 1128.481 1840.525 1127.382 1832.000 1126.527 C 1823.475 1125.672 1812.225 1124.524 1807.000 1123.977 C 1801.538 1123.404 1764.310 1122.985 1719.413 1122.990 C 1656.036 1122.998 1639.553 1122.726 1631.913 1121.546 C 1618.238 1119.433 1612.456 1117.372 1608.766 1113.294 C 1607.815 1112.243 1604.996 1106.459 1602.501 1100.442 C 1596.541 1086.065 1596.635 1086.282 1593.880 1080.528 C 1588.503 1069.296 1561.802 1051.293 1547.000 1048.919 C 1544.525 1048.522 1539.800 1047.728 1536.500 1047.155 C 1517.676 1043.887 1476.582 1043.158 1448.000 1045.586 "/></g>
<g fill="#00D6FFFF" stroke="#00D6FFFF">
<path d="M 200.000 50.131 C 182.928 50.859 166.953 53.451 161.500 56.378 C 159.850 57.263 158.029 57.990 157.454 57.994 C 155.190 58.007 141.175 67.490 135.511 72.842 C 132.217 75.954 127.537 81.650 125.110 85.500 C 122.684 89.350 119.979 93.625 119.099 95.000 C 117.155 98.039 114.253 105.902 112.824 112.000 C 112.244 114.475 111.259 117.131 110.635 117.901 C 109.132 119.756 108.520 158.369 109.855 167.039 C 110.402 170.592 111.349 176.875 111.959 181.000 C 112.568 185.125 113.701 191.425 114.476 195.000 C 115.252 198.575 116.188 203.928 116.557 206.895 C 116.926 209.862 118.066 214.137 119.092 216.395 C 120.117 218.653 120.966 221.312 120.978 222.305 C 120.999 224.026 122.616 228.051 127.283 238.000 C 130.036 243.869 136.041 252.524 140.681 257.309 C 145.462 262.241 152.770 265.624 167.000 269.491 C 168.375 269.865 199.650 270.566 236.500 271.049 C 273.350 271.533 310.700 272.377 319.500 272.926 C 329.151 273.528 411.684 273.942 527.500 273.970 C 689.229 274.010 722.890 273.778 741.000 272.502 C 752.825 271.669 768.125 270.602 775.000 270.133 C 786.197 269.367 788.090 268.957 793.165 266.197 C 809.473 257.328 826.527 240.275 828.491 230.874 C 828.879 229.018 829.788 226.563 830.512 225.417 C 831.235 224.271 832.153 221.121 832.550 218.417 C 832.947 215.713 833.629 212.543 834.065 211.372 C 834.501 210.202 835.379 204.577 836.016 198.872 C 836.653 193.168 837.810 186.281 838.587 183.568 C 840.556 176.695 840.586 137.912 838.625 132.356 C 837.869 130.213 836.921 125.994 836.518 122.980 C 835.550 115.750 831.628 101.273 829.614 97.500 C 828.733 95.850 828.010 93.975 828.006 93.334 C 827.993 90.818 817.604 76.811 812.033 71.797 C 805.890 66.269 791.473 58.000 787.976 58.000 C 786.862 58.000 783.374 57.058 780.225 55.908 C 774.634 53.864 772.307 53.796 680.500 52.978 C 320.596 49.773 222.065 49.189 200.000 50.131 "/></g>
<g fill="#00D6FFFF" stroke="#00D6FFFF">
<path d="M 729.517 1554.686 C 725.962 1555.673 717.577 1561.572 714.108 1565.526 C 710.216 1569.963 706.965 1576.872 704.710 1585.500 C 701.027 1599.586 699.852 1603.654 698.712 1606.258 C 696.947 1610.290 690.505 1614.467 682.272 1616.919 C 675.588 1618.910 672.843 1619.070 645.661 1619.065 C 615.009 1619.058 607.872 1618.396 590.693 1613.969 C 581.980 1611.723 576.359 1609.289 567.500 1603.924 C 555.354 1596.569 544.107 1591.721 540.536 1592.300 C 538.707 1592.597 529.713 1596.515 520.548 1601.006 C 511.383 1605.498 502.673 1609.550 501.192 1610.012 C 499.711 1610.473 496.025 1611.792 493.000 1612.943 C 480.783 1617.593 467.435 1619.000 435.537 1619.000 C 408.553 1619.000 405.321 1618.818 399.209 1616.955 C 395.519 1615.830 390.925 1614.492 389.000 1613.981 C 383.876 1612.623 375.704 1610.339 365.500 1607.415 C 346.005 1601.829 344.390 1601.551 339.947 1603.018 C 334.752 1604.732 327.507 1611.086 324.884 1616.228 C 321.729 1622.412 320.036 1632.426 320.020 1645.000 C 319.996 1664.363 322.898 1683.125 327.075 1690.613 C 328.030 1692.325 329.407 1694.800 330.135 1696.113 C 330.863 1697.426 334.908 1701.899 339.124 1706.054 C 353.910 1720.627 365.395 1723.876 377.658 1716.955 C 387.829 1711.214 412.583 1691.687 427.500 1677.637 C 435.465 1670.135 451.741 1660.018 463.000 1655.570 C 475.612 1650.588 481.730 1649.638 501.500 1649.596 C 521.643 1649.553 526.735 1650.239 540.000 1654.782 C 555.849 1660.211 563.001 1665.040 587.165 1686.627 C 617.462 1713.695 621.547 1717.230 623.934 1718.448 C 627.870 1720.455 640.284 1723.000 646.139 1723.000 C 649.023 1723.000 656.584 1723.462 662.941 1724.026 C 696.261 1726.985 699.653 1728.550 703.001 1742.503 C 704.922 1750.510 702.993 1757.950 697.543 1763.557 C 693.466 1767.751 692.910 1767.984 675.083 1772.950 C 668.572 1774.764 665.666 1778.243 663.763 1786.500 C 656.537 1817.867 654.726 1825.051 653.922 1825.548 C 653.415 1825.862 653.000 1826.929 653.000 1827.921 C 653.000 1830.397 645.608 1844.563 641.696 1849.584 C 639.935 1851.845 633.770 1858.761 627.997 1864.955 C 614.479 1879.456 611.000 1884.712 611.000 1890.633 C 611.000 1896.975 621.207 1910.693 629.575 1915.597 C 636.960 1919.925 644.591 1921.670 666.000 1923.927 C 685.118 1925.943 783.129 1924.616 801.000 1922.099 C 811.324 1920.646 822.785 1917.658 833.000 1913.756 C 845.292 1909.062 855.991 1899.355 861.467 1887.929 C 863.410 1883.874 865.000 1879.783 865.000 1878.837 C 865.000 1877.892 865.400 1876.871 865.890 1876.568 C 866.379 1876.266 867.007 1874.552 867.286 1872.759 C 867.845 1869.164 870.583 1857.505 872.177 1851.937 C 873.085 1848.764 872.999 1831.311 871.724 1760.000 C 871.532 1749.258 872.864 1743.446 876.992 1737.012 C 880.589 1731.407 884.222 1729.000 889.084 1729.000 C 890.835 1729.000 893.895 1728.574 895.884 1728.054 C 897.873 1727.533 906.025 1726.152 914.000 1724.984 C 921.975 1723.816 931.562 1722.162 935.304 1721.309 C 947.822 1718.456 958.215 1708.297 964.266 1693.000 C 969.114 1680.743 970.319 1672.973 970.730 1651.298 C 971.073 1633.223 970.900 1630.381 969.087 1624.292 C 966.365 1615.154 962.041 1608.616 956.318 1604.987 C 949.265 1600.514 947.367 1600.702 928.000 1607.791 C 909.490 1614.567 898.438 1618.185 893.500 1619.084 C 890.750 1619.585 886.475 1620.416 884.000 1620.931 C 862.267 1625.450 818.064 1621.491 793.167 1612.796 C 773.204 1605.823 762.960 1596.524 753.798 1577.058 C 750.547 1570.151 747.355 1563.428 746.704 1562.118 C 743.998 1556.670 735.540 1553.013 729.517 1554.686 "/></g>
<g fill="#00D6FFFF" stroke="#00D6FFFF">
<path d="M 1702.500 40.884 C 1697.000 41.885 1690.025 43.832 1687.000 45.210 C 1681.224 47.843 1678.906 50.370 1674.956 58.338 L 1672.557 63.177 1674.779 67.036 C 1676.000 69.159 1677.000 71.382 1677.000 71.977 C 1677.000 72.992 1678.623 76.624 1688.042 96.689 C 1690.157 101.194 1692.208 106.594 1692.600 108.689 C 1692.993 110.785 1693.918 113.948 1694.657 115.718 C 1696.400 119.895 1696.381 130.822 1694.623 135.128 C 1693.866 136.983 1692.925 140.724 1692.533 143.443 C 1691.739 148.945 1684.635 164.109 1677.046 176.500 C 1671.837 185.006 1667.033 195.640 1667.017 198.701 C 1666.999 202.091 1668.916 209.856 1671.410 216.500 C 1672.236 218.700 1672.932 221.755 1672.956 223.290 C 1672.980 224.824 1673.892 227.828 1674.982 229.964 C 1677.568 235.034 1679.656 247.438 1680.543 263.000 C 1681.324 276.715 1683.113 283.941 1688.387 294.674 C 1690.232 298.428 1692.078 302.625 1692.489 304.000 C 1692.900 305.375 1693.814 307.175 1694.519 308.000 C 1695.224 308.825 1696.999 312.425 1698.463 316.000 C 1699.927 319.575 1701.733 323.850 1702.476 325.500 C 1703.219 327.150 1704.158 330.743 1704.562 333.483 C 1704.966 336.224 1705.863 339.824 1706.556 341.483 C 1709.499 348.540 1709.251 366.968 1706.097 375.500 C 1705.487 377.150 1704.550 380.315 1704.014 382.534 C 1703.189 385.950 1690.104 409.267 1682.429 421.000 C 1681.170 422.925 1679.830 426.202 1679.452 428.282 C 1678.646 432.719 1680.671 447.313 1682.631 451.191 C 1683.379 452.671 1684.446 457.095 1685.003 461.021 C 1685.560 464.948 1686.545 469.137 1687.193 470.330 C 1687.864 471.568 1688.556 478.517 1688.804 486.512 C 1689.148 497.641 1688.883 501.859 1687.515 507.012 C 1686.568 510.580 1685.379 515.300 1684.873 517.500 C 1684.367 519.700 1683.317 522.850 1682.540 524.500 C 1679.998 529.898 1675.601 545.421 1675.601 549.000 C 1675.601 556.334 1681.086 562.825 1688.793 564.611 C 1690.282 564.956 1692.625 565.972 1694.000 566.869 C 1696.120 568.252 1700.556 568.547 1723.174 568.809 C 1748.191 569.099 1755.160 568.637 1762.500 566.203 C 1764.150 565.656 1768.618 564.192 1772.428 562.950 C 1781.236 560.079 1786.929 556.228 1791.434 550.090 C 1793.395 547.418 1795.000 544.937 1795.000 544.576 C 1795.000 544.214 1795.829 542.700 1796.842 541.210 C 1800.563 535.737 1806.460 526.418 1808.048 523.500 C 1812.298 515.692 1817.139 508.589 1819.213 507.120 C 1821.096 505.787 1825.480 505.404 1844.000 504.959 C 1858.189 504.618 1867.540 503.971 1869.315 503.209 C 1870.863 502.544 1873.351 502.000 1874.843 502.000 C 1876.334 502.000 1878.443 501.382 1879.527 500.628 C 1880.612 499.873 1883.075 498.924 1885.000 498.520 C 1886.925 498.115 1889.400 496.994 1890.500 496.027 C 1891.600 495.061 1894.525 493.100 1897.000 491.670 C 1911.139 483.499 1930.379 455.601 1933.006 439.464 C 1933.522 436.294 1934.498 432.080 1935.175 430.100 C 1937.124 424.401 1936.592 412.504 1934.008 404.000 C 1932.755 399.875 1931.186 395.825 1930.520 395.000 C 1929.855 394.175 1927.884 390.959 1926.141 387.853 C 1922.331 381.066 1912.089 369.068 1901.937 359.500 C 1897.852 355.650 1892.933 350.916 1891.005 348.979 C 1889.077 347.043 1885.475 343.826 1883.000 341.831 C 1880.525 339.836 1876.925 336.757 1875.000 334.989 C 1873.075 333.221 1869.025 329.931 1866.000 327.678 C 1862.975 325.425 1857.800 321.286 1854.500 318.482 C 1851.200 315.677 1846.804 312.111 1844.731 310.558 C 1839.247 306.448 1834.729 299.309 1834.728 294.751 C 1834.727 290.063 1839.221 283.228 1842.899 282.324 C 1844.329 281.972 1846.605 280.968 1847.955 280.092 C 1849.306 279.217 1853.803 278.211 1857.955 277.855 C 1887.510 275.324 1894.418 274.179 1901.617 270.621 C 1910.044 266.457 1919.347 259.248 1923.577 253.605 C 1929.342 245.914 1933.799 234.641 1936.072 222.000 C 1937.143 216.044 1937.141 186.581 1936.069 181.500 C 1932.263 163.455 1927.669 154.657 1916.806 144.614 C 1910.483 138.767 1907.723 136.984 1901.306 134.604 C 1897.013 133.012 1892.447 131.062 1891.160 130.272 C 1889.408 129.197 1882.745 128.629 1864.660 128.014 C 1838.990 127.142 1829.127 125.653 1823.432 121.791 C 1817.829 117.992 1814.277 108.896 1810.964 89.864 C 1810.520 87.314 1809.446 83.135 1808.578 80.579 C 1807.710 78.022 1807.000 75.046 1807.000 73.966 C 1807.000 69.328 1792.639 54.427 1783.818 49.913 C 1781.793 48.876 1779.854 47.572 1779.509 47.014 C 1779.164 46.456 1777.725 46.000 1776.311 46.000 C 1774.897 46.000 1770.311 45.134 1766.120 44.075 C 1749.027 39.756 1717.413 38.170 1702.500 40.884 "/></g>
<g fill="#00D6FFFF" stroke="#00D6FFFF">
<path d="M 1224.500 35.548 C 1221.200 36.306 1215.128 37.397 1211.007 37.970 C 1196.284 40.019 1184.629 45.343 1177.289 53.374 C 1170.840 60.431 1166.829 67.599 1164.070 77.000 C 1162.860 81.125 1160.999 87.200 1159.934 90.500 C 1158.870 93.800 1158.000 98.795 1158.000 101.600 C 1158.000 111.254 1149.938 119.347 1138.005 121.674 C 1134.427 122.371 1120.025 123.427 1106.000 124.021 C 1071.312 125.490 1066.632 126.880 1050.498 140.506 C 1045.690 144.567 1044.491 146.563 1038.634 160.255 C 1036.005 166.401 1034.360 197.678 1035.746 215.165 C 1037.189 233.369 1040.243 241.534 1049.169 251.051 C 1060.515 263.149 1071.334 267.898 1092.500 270.070 C 1108.683 271.731 1115.644 275.196 1119.897 283.710 C 1122.605 289.131 1122.545 290.990 1119.472 297.055 C 1116.122 303.666 1100.721 318.448 1078.896 336.000 C 1076.502 337.925 1071.609 341.978 1068.022 345.008 C 1064.435 348.037 1059.925 351.707 1058.000 353.163 C 1052.303 357.474 1037.688 372.182 1034.811 376.500 C 1033.346 378.700 1030.990 382.703 1029.576 385.395 C 1028.161 388.087 1026.548 390.840 1025.991 391.511 C 1024.539 393.260 1022.535 408.192 1022.570 417.000 C 1022.605 426.099 1024.706 440.940 1026.215 442.759 C 1026.819 443.487 1028.395 446.426 1029.717 449.291 C 1034.676 460.036 1043.324 471.042 1055.025 481.500 C 1061.090 486.921 1066.026 490.091 1075.500 494.650 L 1083.500 498.500 1102.000 498.321 C 1118.283 498.164 1121.039 497.897 1125.000 496.093 C 1129.922 493.852 1139.288 493.301 1143.185 495.024 C 1153.637 499.646 1158.000 504.557 1158.000 511.700 C 1158.000 514.122 1158.858 517.768 1159.907 519.802 C 1160.955 521.836 1162.777 526.750 1163.955 530.722 C 1166.359 538.825 1170.884 545.264 1178.601 551.563 C 1184.881 556.688 1191.310 561.000 1192.673 561.000 C 1193.260 561.000 1196.557 561.900 1200.000 563.000 C 1203.443 564.100 1207.439 565.003 1208.880 565.006 C 1210.321 565.010 1212.850 565.782 1214.500 566.724 C 1217.102 568.208 1220.751 568.440 1242.000 568.468 C 1263.757 568.496 1266.777 568.304 1268.973 566.750 C 1270.332 565.788 1272.045 565.000 1272.777 565.000 C 1275.759 565.000 1283.711 560.571 1286.872 557.150 C 1298.541 544.522 1298.562 544.023 1288.417 519.500 C 1286.597 515.100 1284.825 510.375 1284.478 509.000 C 1284.132 507.625 1283.032 504.700 1282.035 502.500 C 1277.846 493.256 1276.107 486.113 1276.044 477.886 C 1276.020 474.799 1275.529 469.849 1274.954 466.886 C 1274.379 463.924 1273.575 454.667 1273.169 446.317 C 1272.598 434.584 1272.066 430.720 1270.827 429.317 C 1269.945 428.317 1267.959 425.025 1266.413 422.000 C 1264.867 418.975 1262.858 415.375 1261.950 414.000 C 1259.243 409.904 1253.620 401.098 1247.372 391.171 C 1244.142 386.039 1239.857 379.289 1237.849 376.171 C 1221.267 350.414 1210.648 332.685 1209.451 328.757 C 1209.073 327.516 1208.232 325.825 1207.583 325.000 C 1205.661 322.559 1202.309 313.908 1200.996 308.000 C 1199.276 300.263 1198.630 286.087 1199.884 283.581 C 1200.456 282.436 1201.365 278.973 1201.903 275.885 C 1202.441 272.797 1203.747 268.747 1204.805 266.885 C 1210.298 257.215 1211.780 254.961 1216.769 248.689 C 1219.748 244.942 1225.631 239.336 1229.843 236.230 C 1234.054 233.124 1241.965 227.034 1247.422 222.696 C 1252.879 218.358 1259.066 213.721 1261.172 212.392 C 1263.277 211.062 1265.000 209.472 1265.000 208.857 C 1265.000 208.242 1266.599 205.512 1268.554 202.791 C 1270.509 200.070 1272.541 196.866 1273.069 195.672 C 1273.597 194.477 1276.026 190.350 1278.467 186.500 C 1280.909 182.650 1283.655 178.150 1284.571 176.500 C 1285.487 174.850 1287.420 171.925 1288.866 170.000 C 1295.577 161.069 1297.603 151.773 1294.472 144.279 C 1292.092 138.583 1290.555 116.354 1291.911 107.237 C 1292.531 103.069 1293.411 99.173 1293.866 98.579 C 1294.322 97.986 1295.917 93.450 1297.412 88.500 C 1298.907 83.550 1301.001 77.651 1302.065 75.390 C 1303.347 72.669 1304.001 69.123 1304.002 64.890 C 1304.004 58.940 1303.689 58.037 1299.420 51.785 C 1294.393 44.422 1287.830 39.585 1281.334 38.455 C 1279.225 38.089 1274.153 36.936 1270.062 35.894 C 1260.870 33.554 1234.057 33.349 1224.500 35.548 "/></g>
<g fill="#00D6FFFF" stroke="#00D6FFFF">
<path d="M 1589.000 279.013 C 1580.523 280.360 1570.735 282.811 1570.117 283.742 C 1569.778 284.254 1567.250 285.976 1564.500 287.569 C 1561.750 289.162 1555.900 292.833 1551.500 295.727 C 1547.100 298.622 1542.993 300.992 1542.372 300.995 C 1541.752 300.998 1540.697 301.660 1540.027 302.468 C 1539.357 303.275 1535.223 306.003 1530.841 308.531 C 1524.184 312.371 1521.755 313.221 1516.079 313.697 C 1501.625 314.908 1499.318 314.047 1476.145 298.782 C 1461.907 289.403 1452.793 286.511 1437.500 286.517 C 1421.818 286.523 1412.207 289.428 1398.906 298.181 C 1384.444 307.698 1363.000 332.098 1363.000 339.036 C 1363.000 342.313 1368.020 357.623 1372.096 366.777 C 1373.143 369.129 1374.003 372.054 1374.006 373.277 C 1374.010 374.500 1374.724 376.850 1375.594 378.500 C 1378.648 384.295 1382.000 394.272 1382.000 397.568 C 1382.000 401.860 1377.941 405.072 1367.288 409.209 C 1363.012 410.869 1358.623 412.851 1357.534 413.614 C 1356.446 414.376 1354.868 415.001 1354.027 415.003 C 1350.080 415.011 1333.860 427.855 1328.007 435.606 C 1324.267 440.561 1323.065 443.466 1319.983 455.000 C 1319.469 456.925 1319.037 464.696 1319.024 472.269 C 1319.003 484.273 1319.308 486.919 1321.405 492.921 C 1324.254 501.077 1326.871 504.229 1337.367 512.148 L 1345.233 518.083 1350.867 514.353 C 1358.712 509.160 1363.326 506.285 1364.500 505.861 C 1365.050 505.663 1370.983 502.238 1377.685 498.250 C 1384.387 494.263 1390.289 491.000 1390.800 491.000 C 1391.312 491.000 1392.803 490.159 1394.115 489.130 C 1395.427 488.102 1397.981 486.937 1399.790 486.542 C 1401.600 486.147 1405.974 484.342 1409.510 482.531 C 1413.214 480.634 1418.361 478.935 1421.649 478.525 C 1424.789 478.132 1428.290 477.241 1429.429 476.545 C 1430.734 475.747 1439.305 474.843 1452.599 474.101 C 1477.033 472.738 1516.865 474.116 1523.000 476.536 C 1524.925 477.296 1530.100 478.220 1534.500 478.590 C 1538.900 478.960 1545.146 480.104 1548.380 481.132 C 1551.614 482.159 1554.822 483.000 1555.508 483.000 C 1556.194 483.000 1557.315 483.675 1558.000 484.500 C 1558.685 485.325 1560.461 486.000 1561.946 486.000 C 1566.369 486.000 1579.411 493.438 1593.388 503.931 C 1600.600 509.344 1607.688 514.882 1609.140 516.238 C 1610.593 517.593 1613.435 519.724 1615.457 520.973 C 1622.213 525.149 1629.451 522.388 1637.501 512.564 C 1640.640 508.734 1641.334 506.900 1642.583 499.139 C 1643.847 491.287 1643.846 488.488 1642.574 476.999 C 1641.773 469.765 1640.689 463.319 1640.164 462.673 C 1637.339 459.198 1624.000 431.879 1624.000 429.567 C 1624.000 425.966 1630.691 415.782 1643.299 400.192 C 1652.781 388.469 1661.000 376.471 1661.000 374.354 C 1661.000 373.868 1662.013 371.677 1663.250 369.485 C 1665.207 366.019 1665.500 364.062 1665.500 354.455 C 1665.500 345.620 1665.150 342.876 1663.750 340.740 C 1662.788 339.272 1662.000 337.462 1662.000 336.718 C 1662.000 334.868 1657.217 325.668 1652.782 318.989 C 1648.747 312.912 1634.215 296.613 1629.500 292.877 C 1624.986 289.301 1620.161 286.000 1619.445 286.000 C 1619.095 286.000 1617.614 285.155 1616.154 284.122 C 1614.694 283.089 1611.475 281.912 1609.000 281.506 C 1606.525 281.100 1603.825 280.432 1603.000 280.021 C 1600.446 278.749 1593.713 278.265 1589.000 279.013 "/></g>
<g fill="#00D6FFFF" stroke="#00D6FFFF">
<path d="M 1404.000 56.036 C 1400.425 57.042 1396.514 57.896 1395.309 57.933 C 1394.104 57.970 1389.604 59.794 1385.309 61.987 C 1381.014 64.180 1377.108 65.980 1376.630 65.987 C 1375.083 66.010 1356.653 82.517 1351.500 88.495 C 1348.750 91.685 1345.791 95.016 1344.925 95.898 C 1344.059 96.779 1342.371 99.426 1341.175 101.781 C 1338.570 106.908 1338.153 118.461 1340.414 122.834 C 1341.192 124.338 1342.151 127.354 1342.545 129.535 C 1342.939 131.716 1343.678 134.027 1344.188 134.672 C 1345.226 135.984 1348.617 144.651 1350.184 150.000 C 1350.748 151.925 1351.802 154.625 1352.525 156.000 C 1354.101 158.994 1356.957 167.419 1357.697 171.252 C 1358.236 174.048 1355.864 179.000 1353.986 179.000 C 1353.453 179.000 1350.891 180.623 1348.291 182.607 C 1345.692 184.591 1342.635 186.568 1341.498 187.001 C 1337.340 188.582 1324.536 201.689 1321.764 207.201 C 1317.717 215.253 1316.333 225.924 1317.815 237.659 C 1319.671 252.353 1324.243 260.247 1335.067 267.450 C 1337.505 269.072 1340.426 271.207 1341.559 272.194 C 1344.366 274.642 1351.832 275.886 1357.930 274.922 C 1360.706 274.483 1368.045 271.683 1374.239 268.700 C 1380.432 265.716 1386.625 262.935 1388.000 262.519 C 1389.375 262.104 1391.175 261.186 1392.000 260.481 C 1392.825 259.776 1396.381 257.995 1399.903 256.523 C 1403.424 255.051 1407.249 253.233 1408.403 252.483 C 1409.556 251.733 1412.975 250.806 1416.000 250.424 C 1419.025 250.041 1422.715 249.114 1424.200 248.364 C 1427.582 246.656 1445.215 246.509 1448.306 248.164 C 1449.502 248.804 1453.410 249.881 1456.990 250.557 C 1463.763 251.837 1480.391 258.203 1483.000 260.515 C 1483.825 261.246 1485.850 262.172 1487.500 262.574 C 1489.150 262.975 1493.200 264.642 1496.500 266.279 C 1505.459 270.722 1510.402 270.507 1521.000 265.215 C 1530.572 260.435 1542.028 254.070 1544.114 252.372 C 1544.876 251.752 1546.555 250.921 1547.844 250.525 C 1549.133 250.129 1552.075 248.532 1554.382 246.975 C 1556.689 245.418 1559.909 243.821 1561.538 243.426 C 1563.167 243.032 1566.075 241.911 1568.000 240.937 C 1571.115 239.360 1583.709 237.194 1603.000 234.916 C 1610.526 234.027 1616.057 232.164 1618.957 229.539 C 1621.083 227.615 1621.652 224.090 1620.102 222.450 C 1619.608 221.928 1617.974 218.350 1616.471 214.500 C 1614.968 210.650 1613.164 206.825 1612.462 206.000 C 1611.760 205.175 1610.682 202.606 1610.066 200.292 C 1609.450 197.978 1608.508 195.814 1607.973 195.483 C 1607.438 195.153 1607.000 192.951 1607.000 190.591 C 1607.000 185.581 1608.876 182.680 1621.935 167.500 C 1633.311 154.275 1638.000 148.454 1638.000 147.555 C 1638.000 147.148 1638.900 145.671 1640.000 144.273 C 1641.100 142.874 1642.015 141.003 1642.034 140.115 C 1642.053 139.227 1642.937 136.700 1644.000 134.500 C 1646.737 128.834 1646.725 115.194 1643.978 109.141 C 1642.890 106.743 1642.000 104.319 1642.000 103.754 C 1642.000 100.897 1631.521 87.304 1622.113 77.955 C 1611.714 67.622 1597.884 58.034 1593.297 57.978 C 1592.308 57.966 1589.538 57.066 1587.141 55.978 C 1583.589 54.366 1580.602 54.000 1571.017 54.000 C 1563.324 54.000 1557.836 54.499 1555.163 55.442 C 1552.915 56.236 1548.549 57.352 1545.462 57.922 C 1542.279 58.511 1537.912 60.267 1535.375 61.980 C 1532.913 63.641 1530.527 65.000 1530.072 65.000 C 1529.617 65.000 1528.675 65.687 1527.978 66.527 C 1526.728 68.033 1525.135 69.177 1509.665 79.680 C 1502.064 84.841 1501.623 85.000 1494.900 85.000 C 1488.990 85.000 1487.199 84.552 1482.735 81.955 C 1475.055 77.488 1474.728 77.311 1472.000 76.147 C 1470.625 75.560 1466.575 73.419 1463.000 71.389 C 1451.289 64.738 1437.712 58.000 1436.022 58.000 C 1435.111 58.000 1431.020 57.111 1426.932 56.024 C 1417.918 53.626 1412.548 53.629 1404.000 56.036 "/></g>
<g fill="#00D6FFFF" stroke="#00D6FFFF">
<path d="M 493.000 1688.992 C 474.963 1690.784 457.813 1699.818 440.463 1716.666 C 429.154 1727.649 422.885 1736.467 421.630 1743.159 C 421.264 1745.108 421.417 1750.032 421.970 1754.101 C 423.362 1764.345 432.894 1783.701 441.404 1793.565 C 444.757 1797.451 449.300 1802.846 451.500 1805.553 C 453.700 1808.260 457.105 1812.281 459.068 1814.488 C 461.030 1816.694 469.951 1827.179 478.893 1837.786 C 498.684 1861.265 504.964 1866.515 519.176 1871.465 C 524.310 1873.253 537.861 1873.478 542.929 1871.859 C 556.961 1867.378 565.783 1862.327 580.702 1850.234 C 610.104 1826.401 620.624 1806.290 615.610 1783.500 C 611.412 1764.422 600.961 1749.787 572.000 1722.432 C 542.354 1694.431 522.567 1686.055 493.000 1688.992 "/></g>
<g fill="#00D6FFFF" stroke="#00D6FFFF">
<path d="M 779.500 1039.660 C 768.001 1040.966 755.291 1046.942 747.727 1054.599 C 739.391 1063.038 736.042 1071.283 735.713 1084.175 C 735.512 1092.049 735.670 1092.744 738.641 1097.000 C 748.204 1110.704 768.788 1125.792 795.000 1138.314 C 822.925 1151.654 832.254 1154.059 843.384 1150.792 C 854.599 1147.499 870.291 1134.526 876.067 1123.771 C 879.079 1118.163 879.438 1116.649 879.467 1109.451 C 879.496 1102.268 879.140 1100.691 876.154 1094.806 C 870.422 1083.509 855.158 1068.725 838.000 1057.852 C 834.975 1055.936 830.597 1053.160 828.271 1051.684 C 825.946 1050.208 823.828 1049.000 823.566 1049.000 C 823.304 1049.000 820.257 1047.702 816.795 1046.116 C 813.333 1044.530 808.466 1042.508 805.981 1041.622 C 801.311 1039.957 786.525 1038.862 779.500 1039.660 "/></g>
<g fill="#00D6FFFF" stroke="#00D6FFFF">
<path d="M 1259.779 265.443 C 1254.831 269.221 1249.454 276.241 1246.652 282.580 C 1245.226 285.809 1244.933 288.523 1245.249 295.580 C 1245.701 305.678 1248.416 318.697 1250.564 321.070 C 1251.354 321.943 1252.003 323.072 1252.007 323.579 C 1252.016 324.793 1259.592 336.640 1266.219 345.801 C 1269.123 349.817 1271.682 353.642 1271.905 354.301 C 1272.128 354.961 1273.746 357.300 1275.501 359.500 C 1277.256 361.700 1282.189 368.791 1286.463 375.259 C 1290.927 382.013 1295.993 388.386 1298.367 390.233 C 1300.640 392.001 1302.725 393.738 1303.000 394.093 C 1303.275 394.448 1305.848 395.922 1308.717 397.369 C 1315.394 400.737 1325.436 401.089 1329.139 398.085 C 1331.238 396.382 1331.473 395.449 1331.257 389.678 C 1331.095 385.335 1329.980 380.427 1327.888 374.844 C 1325.017 367.183 1324.688 365.027 1323.861 348.500 C 1323.318 337.649 1322.412 329.110 1321.580 327.000 C 1320.820 325.075 1319.449 321.381 1318.533 318.792 C 1317.207 315.047 1305.095 298.212 1302.134 296.000 C 1301.185 295.291 1285.474 273.864 1284.341 271.733 C 1283.825 270.762 1281.016 268.174 1278.101 265.983 C 1270.998 260.646 1266.244 260.506 1259.779 265.443 "/></g>
</svg>
