<?xml version="1.0" encoding="UTF-8" standalone="no"?>
<svg version="1.1" viewBox="0 0 2001 647" xmlns="http://www.w3.org/2000/svg" xmlns:svg="http://www.w3.org/2000/svg" width="2001pt" height="647pt">
<style>
@keyframes lineAnimation1 {
    0% {
        stroke-dashoffset: 3000;
        fill: transparent;
        stroke: #676767FF;
    }

    100% {
        stroke-dashoffset: 0;
        fill: #676767FF;
        stroke: #676767FF;
    }
}

@keyframes lineAnimation2 {
    0% {
        stroke-dashoffset: 3000;
        fill: transparent;
        stroke: #EE3A24FF;
    }

    100% {
        stroke-dashoffset: 0;
        fill: #EE3A24FF;
        stroke: #EE3A24FF;
    }
}

.icon1 {
    fill: none;
    stroke: #676767FF;
    stroke-width: 5;
    stroke-miterlimit: 10;
    stroke-dasharray: 4500;
    stroke-dashoffset: 4500;
    animation: lineAnimation1 1s linear forwards;
    animation-delay: 1s;
}
.icon2 {
    fill: none;
    stroke: #EE3A24FF;
    stroke-width: 5;
    stroke-miterlimit: 10;
    stroke-dasharray: 4500;
    stroke-dashoffset: 4500;
    animation: lineAnimation2 1s linear forwards;
    animation-delay: 1s;
}

.yun {
    fill: none;
    stroke: #676767FF;
    stroke-width: 5;
    stroke-miterlimit: 10;
    stroke-dasharray: 3500;
    stroke-dashoffset: 3500;
    animation: lineAnimation1 1s linear forwards;
    animation-delay: 1.25s;
}


.fan {
    fill: none;
    stroke: #EE3A24FF;
    stroke-width: 5;
    stroke-miterlimit: 10;
    stroke-dasharray: 4500;
    stroke-dashoffset: 4500;
    animation: lineAnimation1 1s linear forwards;
    animation-delay: 1.5s;
}


.wang {
    fill: none;
    stroke: #EE3A24FF;
    stroke-width: 5;
    stroke-miterlimit: 10;
    stroke-dasharray: 3500;
    stroke-dashoffset: 3500;
    animation: lineAnimation2 1s linear forwards;
    animation-delay: 1.75s;
}

</style>
<path class='icon1' d="M 287.000 22.882 C 280.164 25.088 275.718 27.342 270.252 31.370 C 265.597 34.800 257.002 44.478 120.939 199.500 C 32.600 300.149 40.261 290.900 36.280 301.714 C 33.240 309.971 32.222 322.943 33.956 331.294 C 37.951 350.520 53.274 366.688 72.932 372.417 C 83.581 375.521 100.318 373.906 110.440 368.798 C 119.182 364.386 125.026 358.718 148.783 331.611 C 162.333 316.150 181.738 294.050 191.904 282.500 C 202.071 270.950 222.762 247.325 237.884 230.000 C 253.006 212.675 268.321 195.433 271.917 191.684 C 283.806 179.290 296.649 173.578 312.500 173.635 C 339.658 173.732 361.412 191.783 366.571 218.500 C 369.662 234.507 365.733 249.391 354.560 264.000 C 344.156 277.605 340.550 287.306 340.621 301.500 C 340.692 315.612 346.071 328.778 355.756 338.540 C 374.294 357.227 402.854 359.803 425.224 344.808 C 429.398 342.009 476.708 289.444 506.645 254.341 C 520.318 238.309 524.150 219.633 517.608 200.910 C 514.212 191.192 509.332 184.404 498.920 174.915 C 469.652 148.243 334.803 31.133 330.091 28.295 C 321.424 23.075 313.382 20.991 302.145 21.054 C 295.773 21.089 290.634 21.710 287.000 22.882 "/>
<path class='icon2' d="M 530.500 283.357 C 523.507 285.204 518.862 287.321 512.432 291.589 C 506.770 295.347 506.139 296.051 404.028 412.500 C 381.360 438.350 360.269 462.108 357.157 465.296 C 350.254 472.369 344.621 476.085 335.474 479.603 C 326.023 483.237 309.970 483.437 300.038 480.044 C 282.692 474.117 271.040 462.310 264.910 444.448 C 263.005 438.897 262.533 435.490 262.560 427.500 C 262.609 412.714 265.288 405.543 276.249 390.863 C 285.089 379.022 288.126 371.211 288.771 358.656 C 289.366 347.077 288.093 340.244 283.630 331.059 C 277.802 319.066 266.466 309.087 253.455 304.496 C 241.041 300.116 223.372 301.267 211.500 307.229 C 202.779 311.609 196.360 318.171 158.162 361.755 C 114.173 411.947 112.059 414.903 109.827 429.331 C 107.110 446.901 112.926 463.750 126.161 476.655 C 130.198 480.591 159.150 506.261 190.500 533.699 C 221.850 561.137 257.625 592.510 270.000 603.417 C 295.103 625.540 301.380 630.093 310.928 633.099 C 318.753 635.563 331.872 635.999 340.000 634.065 C 347.072 632.382 357.350 627.031 362.693 622.251 C 364.999 620.188 388.790 593.525 415.561 563.000 C 442.332 532.475 491.070 476.948 523.868 439.607 C 556.665 402.265 585.110 369.415 587.078 366.607 C 607.032 338.124 594.986 298.666 562.326 285.527 C 554.091 282.215 538.776 281.171 530.500 283.357 "/>

<path class='yun' d="M 673.500 236.941 C 662.905 238.172 653.939 240.733 649.590 243.770 C 644.770 247.135 639.611 256.177 638.131 263.850 C 634.795 281.150 635.960 307.598 640.503 317.696 C 643.658 324.710 650.686 331.482 658.799 335.326 L 665.500 338.500 690.725 339.000 C 715.258 339.486 716.011 339.562 718.207 341.761 C 721.042 344.599 721.051 349.582 718.233 357.088 C 717.116 360.065 710.933 374.650 704.493 389.500 C 668.449 472.617 671.526 463.894 671.511 483.000 C 671.501 496.369 671.686 497.848 673.882 501.969 C 679.305 512.143 687.411 519.206 698.000 522.982 L 704.500 525.301 833.000 526.259 C 921.662 526.920 966.388 526.892 977.267 526.170 C 992.177 525.180 993.426 524.935 1000.267 521.640 C 1009.179 517.348 1018.323 508.720 1021.642 501.470 C 1026.460 490.947 1027.180 475.322 1023.510 460.943 C 1022.060 455.259 1012.494 434.943 1003.761 419.000 C 988.591 391.304 976.493 370.451 971.609 363.582 C 956.804 342.758 940.227 337.129 917.500 345.207 C 909.118 348.187 902.004 353.097 895.005 360.736 C 887.351 369.089 883.625 376.518 883.776 383.127 C 883.967 391.521 886.977 405.042 891.085 415.955 C 894.571 425.217 894.893 426.793 893.912 429.767 C 893.208 431.899 891.836 433.497 890.152 434.145 C 885.733 435.847 867.109 436.217 834.966 435.242 C 802.128 434.246 799.901 433.869 797.072 428.823 C 795.289 425.643 795.974 423.141 803.454 405.500 C 806.019 399.450 810.298 389.100 812.961 382.500 C 825.168 352.256 829.807 343.866 835.778 341.234 C 838.736 339.930 843.884 339.511 860.861 339.195 L 882.222 338.798 897.361 332.813 C 921.652 323.211 926.480 322.000 940.466 322.000 C 952.061 322.000 957.389 323.748 971.069 332.042 L 983.189 339.389 1000.344 339.149 C 1009.780 339.017 1020.425 338.425 1024.000 337.834 C 1038.765 335.394 1048.796 327.488 1053.503 314.580 C 1056.204 307.175 1056.244 306.734 1055.740 289.771 C 1054.969 263.816 1051.485 253.167 1041.198 245.320 C 1033.232 239.245 1031.088 238.981 981.000 237.936 C 920.686 236.676 682.409 235.905 673.500 236.941 "/>
<path class='yun' d="M 709.470 111.042 C 696.252 112.771 684.180 121.515 678.359 133.576 C 675.528 139.442 675.501 139.675 675.574 157.500 C 675.638 172.849 675.987 176.826 677.949 184.500 C 681.940 200.113 687.303 208.426 695.907 212.341 C 700.214 214.300 702.900 214.473 739.000 215.119 C 796.349 216.144 965.745 216.089 979.278 215.041 C 988.677 214.313 991.808 213.671 994.778 211.866 C 1010.212 202.483 1013.726 194.644 1014.696 167.433 C 1015.332 149.596 1014.328 141.059 1010.602 132.634 C 1007.854 126.420 1003.035 120.678 997.788 117.366 C 989.264 111.985 990.375 112.038 862.762 111.004 C 729.825 109.928 717.969 109.931 709.470 111.042 "/>

<path class='fan' d="M 1410.500 107.503 C 1405.684 109.207 1402.000 113.178 1402.000 116.665 C 1402.000 118.069 1404.103 124.007 1406.673 129.859 C 1410.787 139.228 1411.342 141.328 1411.315 147.428 C 1411.287 153.995 1410.932 155.042 1404.535 167.468 L 1397.784 180.580 1400.829 190.540 C 1402.527 196.097 1404.175 204.258 1404.556 209.000 C 1405.133 216.191 1406.069 219.446 1410.631 230.130 C 1420.143 252.408 1420.116 257.943 1410.417 275.385 C 1406.888 281.731 1404.006 287.953 1404.014 289.212 C 1404.022 290.470 1405.135 296.000 1406.488 301.500 C 1409.796 314.951 1409.674 318.520 1405.443 332.000 C 1401.141 345.704 1401.472 347.950 1408.243 351.024 C 1411.817 352.646 1414.837 352.960 1427.068 352.978 C 1442.651 353.002 1449.523 351.736 1454.324 347.960 C 1455.754 346.835 1459.895 340.984 1463.526 334.957 C 1467.157 328.931 1470.211 323.949 1470.314 323.886 C 1470.416 323.824 1476.575 323.467 1484.000 323.093 C 1496.294 322.475 1497.970 322.158 1502.761 319.542 C 1515.799 312.425 1524.954 297.132 1524.988 282.410 C 1525.013 271.855 1516.102 259.665 1496.830 243.889 C 1477.453 228.027 1476.440 226.784 1478.992 222.014 C 1480.284 219.601 1484.670 218.321 1494.348 217.536 C 1504.267 216.731 1511.696 213.968 1516.507 209.296 C 1521.379 204.564 1523.787 198.974 1525.237 189.031 C 1527.278 175.022 1523.638 161.401 1516.077 154.763 C 1509.965 149.396 1505.095 147.918 1490.166 146.899 C 1482.650 146.386 1475.295 145.483 1473.822 144.892 C 1470.778 143.670 1468.714 139.314 1467.137 130.786 C 1465.705 123.035 1463.869 119.067 1459.898 115.139 C 1453.298 108.610 1443.230 105.988 1425.000 106.051 C 1418.589 106.074 1412.942 106.639 1410.500 107.503 "/>
<path class='fan' d="M 1185.000 105.352 C 1171.781 108.367 1166.582 114.364 1163.008 130.718 C 1161.887 135.847 1160.350 140.095 1159.198 141.247 C 1157.154 143.291 1150.748 144.295 1131.829 145.539 C 1123.058 146.116 1121.636 146.501 1116.546 149.685 C 1109.068 154.363 1106.512 159.393 1105.077 172.261 C 1103.880 182.999 1105.026 195.217 1107.720 200.426 C 1109.964 204.765 1115.639 209.958 1120.390 212.020 C 1122.650 213.001 1127.852 214.128 1131.948 214.524 C 1138.252 215.132 1139.827 215.673 1142.198 218.044 C 1147.822 223.668 1145.836 226.649 1124.590 244.467 C 1101.718 263.649 1098.369 268.866 1099.142 284.110 C 1099.636 293.846 1103.292 301.422 1111.451 309.612 C 1121.815 320.017 1127.871 321.924 1144.350 319.971 C 1153.410 318.897 1154.991 318.944 1157.741 320.366 C 1159.455 321.253 1161.086 322.771 1161.364 323.739 C 1166.037 339.995 1165.917 339.740 1171.117 344.416 C 1177.882 350.497 1183.492 352.185 1198.838 352.753 C 1214.175 353.322 1218.761 352.212 1224.120 346.635 C 1226.254 344.414 1228.000 341.950 1228.000 341.159 C 1228.000 340.368 1225.920 334.271 1223.378 327.610 C 1219.215 316.702 1218.664 314.259 1217.824 303.000 C 1217.312 296.125 1216.425 289.375 1215.854 288.000 C 1215.283 286.625 1208.936 276.060 1201.749 264.523 C 1184.063 236.129 1182.693 233.086 1183.145 223.188 C 1183.670 211.705 1187.192 206.311 1201.668 194.823 C 1212.357 186.340 1213.162 185.429 1220.418 173.601 C 1224.588 166.804 1228.000 160.535 1228.000 159.670 C 1228.000 158.805 1227.325 155.506 1226.500 152.339 C 1224.320 143.970 1224.592 140.995 1228.661 128.644 L 1232.323 117.533 1229.834 113.074 C 1225.762 105.782 1222.242 104.538 1205.000 104.299 C 1196.216 104.177 1188.332 104.593 1185.000 105.352 "/>
<path class='fan' d="M 1357.000 218.308 C 1355.075 219.047 1348.580 222.709 1342.567 226.445 C 1327.159 236.021 1325.564 236.050 1311.895 226.998 C 1305.361 222.672 1298.149 220.000 1293.003 220.000 C 1287.746 220.000 1279.185 222.775 1274.528 225.990 C 1269.262 229.624 1259.272 240.154 1258.057 243.351 C 1256.982 246.178 1258.796 253.313 1263.815 266.000 C 1265.618 270.559 1266.437 273.926 1265.904 274.587 C 1265.421 275.185 1261.982 276.882 1258.263 278.358 C 1248.585 282.200 1242.778 286.798 1239.633 293.110 C 1237.371 297.648 1237.000 299.671 1237.000 307.462 C 1237.000 318.279 1238.542 321.927 1245.117 326.668 L 1249.511 329.836 1259.506 323.830 C 1265.003 320.526 1272.405 316.499 1275.956 314.881 C 1288.503 309.163 1307.888 307.584 1329.899 310.487 C 1348.443 312.932 1353.670 314.971 1366.923 324.923 C 1372.106 328.816 1377.359 332.000 1378.597 332.000 C 1381.807 332.000 1386.663 327.551 1388.054 323.336 C 1388.755 321.214 1389.053 316.612 1388.781 312.119 C 1388.378 305.477 1387.756 303.459 1383.922 296.378 C 1378.778 286.878 1378.694 287.287 1388.188 275.628 C 1400.104 260.996 1402.044 253.259 1396.647 241.885 C 1393.414 235.072 1383.408 223.909 1377.352 220.361 C 1371.999 217.223 1362.360 216.251 1357.000 218.308 "/>
<path class='fan' d="M 1352.500 112.741 C 1343.465 113.495 1338.700 115.307 1330.713 121.028 C 1326.212 124.252 1321.680 127.112 1320.642 127.383 C 1318.996 127.814 1314.173 125.547 1294.500 115.094 C 1289.886 112.643 1274.833 112.963 1269.000 115.638 C 1262.875 118.445 1254.853 124.979 1250.013 131.103 C 1244.763 137.744 1244.776 140.948 1250.110 154.814 C 1256.080 170.333 1256.180 168.996 1248.683 173.881 C 1245.117 176.204 1240.917 179.957 1239.350 182.221 C 1236.758 185.964 1236.500 187.113 1236.500 194.918 C 1236.500 201.699 1236.920 204.214 1238.500 206.902 C 1241.117 211.353 1249.347 217.000 1253.217 217.000 C 1254.867 217.000 1262.278 214.245 1269.687 210.879 C 1289.432 201.906 1295.607 201.859 1314.641 210.533 C 1318.826 212.440 1323.591 214.000 1325.230 214.000 C 1326.977 214.000 1333.317 211.291 1340.550 207.454 C 1351.559 201.614 1353.949 200.745 1362.695 199.403 C 1375.490 197.440 1378.000 196.438 1378.000 193.296 C 1378.000 191.943 1376.626 187.704 1374.946 183.876 C 1373.266 180.049 1372.150 176.101 1372.467 175.104 C 1372.784 174.106 1375.948 169.962 1379.500 165.895 C 1387.462 156.775 1390.000 151.684 1390.000 144.827 C 1390.000 138.332 1387.558 133.138 1381.133 125.968 C 1372.826 116.697 1362.464 111.910 1352.500 112.741 "/>
<path class='fan' d="M 1207.455 213.282 C 1202.249 218.488 1201.228 222.648 1203.048 231.226 C 1204.106 236.209 1206.166 240.041 1214.303 252.158 C 1227.727 272.148 1231.277 275.442 1238.709 274.807 C 1243.707 274.380 1244.709 272.364 1243.184 265.807 C 1242.506 262.888 1241.276 255.100 1240.451 248.500 C 1239.184 238.353 1238.532 235.932 1236.226 232.822 C 1216.688 206.463 1215.250 205.487 1207.455 213.282 "/>
<path class='fan' d="M 1298.063 328.087 C 1291.489 328.937 1282.946 331.853 1277.404 335.138 C 1275.701 336.147 1271.625 340.241 1268.345 344.236 C 1262.769 351.029 1261.803 351.736 1253.441 355.144 C 1248.523 357.148 1239.317 361.075 1232.982 363.871 C 1219.175 369.966 1210.554 371.486 1194.500 370.656 C 1180.991 369.957 1178.932 369.373 1161.831 361.385 C 1149.203 355.487 1147.641 355.001 1141.331 355.010 C 1129.879 355.026 1120.362 360.947 1115.630 371.000 C 1113.794 374.902 1113.516 377.295 1113.541 389.000 C 1113.566 400.855 1113.845 403.109 1115.836 407.500 C 1119.660 415.936 1128.401 423.056 1138.500 425.960 C 1140.882 426.644 1156.691 427.440 1177.575 427.926 C 1200.854 428.468 1213.381 429.134 1214.825 429.906 C 1219.934 432.641 1215.652 437.978 1206.738 439.986 C 1203.857 440.635 1199.475 441.761 1197.000 442.488 C 1187.797 445.192 1174.258 447.866 1166.500 448.513 C 1137.206 450.955 1127.950 452.875 1120.381 458.082 C 1109.441 465.608 1104.306 484.947 1108.511 502.781 C 1110.530 511.346 1112.995 515.819 1118.488 520.882 C 1128.243 529.874 1139.015 532.253 1163.807 530.889 C 1172.226 530.426 1179.426 529.859 1179.807 529.628 C 1180.188 529.398 1187.025 528.248 1195.000 527.073 C 1216.947 523.839 1225.666 521.461 1247.500 512.754 C 1265.066 505.750 1269.155 503.667 1281.103 495.640 C 1290.495 489.329 1298.956 482.476 1308.439 473.500 C 1315.993 466.350 1323.147 459.953 1324.337 459.285 C 1327.015 457.782 1332.485 457.654 1335.066 459.035 C 1337.937 460.572 1337.465 463.965 1333.000 473.881 C 1330.800 478.767 1329.013 483.380 1329.028 484.132 C 1329.068 486.094 1334.521 493.034 1337.753 495.235 C 1344.410 499.769 1391.783 521.000 1395.243 521.000 C 1395.849 521.000 1403.580 522.775 1412.423 524.945 C 1439.524 531.595 1476.034 534.877 1487.105 531.658 C 1498.959 528.212 1510.514 516.041 1513.139 504.239 C 1514.749 497.002 1514.773 484.769 1513.187 479.343 C 1511.348 473.046 1506.047 465.950 1500.793 462.750 C 1492.909 457.949 1483.904 455.887 1449.074 450.906 C 1434.428 448.812 1409.247 440.439 1406.086 436.612 C 1404.856 435.123 1404.894 434.678 1406.371 433.200 C 1408.280 431.289 1426.078 430.287 1461.418 430.100 C 1482.720 429.987 1491.238 428.888 1498.500 425.312 C 1505.317 421.956 1507.327 419.864 1510.643 412.670 C 1513.325 406.853 1513.487 405.729 1513.482 393.000 C 1513.478 381.064 1513.212 378.921 1511.189 374.500 C 1506.804 364.916 1497.918 358.572 1487.188 357.363 C 1483.008 356.892 1481.057 357.495 1469.175 362.926 C 1458.820 367.658 1453.804 369.348 1446.675 370.504 C 1429.259 373.329 1404.126 371.797 1394.500 367.325 C 1392.300 366.303 1387.350 363.626 1383.500 361.377 C 1379.650 359.127 1373.628 356.209 1370.118 354.893 C 1364.583 352.817 1363.029 351.617 1358.396 345.837 C 1352.283 338.213 1349.624 336.121 1340.814 332.005 C 1330.934 327.389 1314.848 325.914 1298.063 328.087 "/>

<path class='wang' d="M 1611.629 121.038 C 1600.496 123.355 1593.841 126.592 1587.643 132.708 C 1581.646 138.624 1577.954 145.791 1574.870 157.500 L 1572.500 166.500 1572.500 342.500 C 1572.500 504.758 1572.634 519.191 1574.218 527.352 C 1576.505 539.138 1578.178 541.828 1585.510 545.500 L 1591.500 548.500 1612.500 548.492 C 1635.439 548.484 1639.094 547.896 1647.500 542.860 C 1653.611 539.199 1657.697 533.709 1659.069 527.315 C 1659.638 524.667 1660.339 510.575 1660.628 496.000 L 1661.154 469.500 1650.921 464.000 C 1637.589 456.835 1632.025 452.399 1626.901 444.855 C 1617.984 431.723 1613.235 416.390 1614.309 404.197 C 1615.521 390.425 1619.572 382.792 1639.095 357.500 C 1643.765 351.450 1649.530 343.741 1651.906 340.368 L 1656.227 334.236 1645.689 312.868 C 1617.293 255.290 1613.217 226.463 1630.600 206.155 C 1635.601 200.311 1646.993 193.119 1655.835 190.223 C 1666.145 186.845 1684.203 186.636 1693.618 189.786 C 1705.780 193.855 1713.470 199.191 1717.865 206.613 C 1718.884 208.335 1719.531 207.914 1725.241 201.814 C 1731.843 194.762 1734.104 193.320 1743.608 190.099 C 1756.403 185.762 1766.558 183.838 1779.500 183.299 C 1791.590 182.794 1793.008 182.933 1799.762 185.282 C 1809.306 188.601 1819.709 195.200 1829.162 203.929 L 1836.824 211.005 1840.996 203.252 C 1847.067 191.970 1849.301 189.462 1856.255 186.116 C 1869.287 179.846 1882.361 179.815 1900.661 186.011 C 1914.778 190.792 1923.829 198.145 1928.899 208.954 C 1931.259 213.986 1931.496 215.611 1931.455 226.500 C 1931.425 234.589 1930.876 240.293 1929.773 244.000 C 1928.872 247.025 1927.475 251.750 1926.667 254.500 C 1924.709 261.168 1911.175 300.066 1904.854 317.193 L 1899.800 330.887 1912.303 362.193 C 1935.007 419.042 1935.452 420.432 1935.480 434.570 C 1935.500 444.472 1935.427 444.787 1931.107 453.510 C 1921.781 472.343 1910.118 479.032 1886.701 478.976 C 1874.616 478.947 1870.046 478.018 1861.514 473.858 C 1853.235 469.821 1847.946 464.473 1843.829 455.973 C 1841.998 452.195 1840.248 449.080 1839.939 449.051 C 1839.631 449.023 1837.879 453.947 1836.047 459.993 C 1832.838 470.584 1832.712 471.634 1832.612 488.743 C 1832.500 507.987 1834.442 521.909 1838.071 527.876 C 1840.494 531.860 1846.125 535.344 1854.086 537.785 C 1866.572 541.612 1877.001 542.501 1909.000 542.470 C 1934.493 542.445 1940.621 542.157 1946.328 540.716 C 1958.949 537.530 1965.815 531.868 1971.412 520.030 L 1974.500 513.500 1974.498 340.500 C 1974.495 177.599 1974.389 166.945 1972.682 158.000 C 1968.800 137.664 1961.159 128.517 1943.970 123.628 C 1928.142 119.126 1923.018 118.994 1767.542 119.096 C 1628.677 119.187 1620.007 119.295 1611.629 121.038 "/>
<path class='wang' d="M 1867.252 201.104 C 1859.677 204.854 1856.045 210.812 1849.331 230.500 C 1843.897 246.438 1839.791 257.000 1839.031 257.000 C 1838.645 257.000 1835.667 249.723 1832.414 240.829 L 1826.500 224.659 1818.705 216.397 C 1811.354 208.606 1805.265 204.425 1800.334 203.782 C 1798.500 203.543 1798.996 204.573 1803.570 210.500 C 1810.624 219.640 1812.004 223.894 1811.983 236.428 C 1811.951 254.761 1810.106 262.693 1798.078 296.235 C 1794.185 307.089 1791.000 316.890 1791.000 318.014 C 1791.000 319.137 1792.350 322.731 1794.000 326.000 C 1795.650 329.269 1797.000 332.465 1797.000 333.103 C 1797.000 334.359 1794.924 338.534 1773.853 379.666 C 1754.232 417.969 1751.734 426.013 1755.973 437.247 C 1757.287 440.730 1760.106 445.144 1763.130 448.452 C 1771.410 457.511 1782.125 461.151 1794.602 459.142 C 1812.717 456.224 1813.606 455.312 1834.625 418.099 C 1837.856 412.378 1840.868 407.653 1841.318 407.599 C 1841.769 407.544 1847.019 416.950 1852.986 428.500 C 1864.665 451.106 1867.515 454.877 1876.215 459.246 C 1889.550 465.942 1898.336 464.724 1907.410 454.924 C 1910.494 451.593 1913.726 447.497 1914.592 445.821 C 1916.798 441.556 1917.451 433.331 1916.088 426.976 C 1914.948 421.659 1891.835 362.696 1884.541 346.500 C 1881.455 339.646 1880.000 335.658 1880.000 334.055 C 1880.000 333.119 1882.459 326.140 1885.464 318.547 C 1890.415 306.034 1898.896 280.834 1908.532 250.000 C 1915.136 228.866 1914.352 217.164 1905.814 209.451 C 1895.964 200.552 1876.763 196.396 1867.252 201.104 "/>
<path class='wang' d="M 1755.801 204.093 C 1749.802 205.021 1741.665 209.438 1738.638 213.411 C 1735.344 217.733 1731.326 225.642 1725.500 239.273 C 1722.750 245.707 1720.096 250.843 1719.603 250.686 C 1719.110 250.530 1717.254 246.824 1715.479 242.451 C 1709.094 226.720 1707.029 222.911 1702.005 217.599 C 1694.248 209.397 1689.257 207.570 1674.500 207.531 C 1658.673 207.490 1654.040 208.846 1647.458 215.445 C 1643.234 219.679 1642.056 221.717 1640.204 228.000 C 1635.543 243.815 1638.103 256.476 1651.224 282.500 C 1657.797 295.536 1663.665 305.945 1672.126 319.573 C 1675.907 325.663 1679.000 331.224 1679.000 331.931 C 1679.000 333.305 1668.109 349.420 1656.650 365.000 C 1652.807 370.225 1647.898 376.897 1645.741 379.827 C 1637.704 390.743 1633.763 403.954 1635.929 412.725 C 1637.598 419.486 1641.387 426.443 1647.628 434.209 C 1657.227 446.153 1668.432 451.593 1681.716 450.758 C 1695.354 449.901 1699.284 446.474 1717.429 419.617 C 1729.007 402.479 1729.608 401.699 1730.891 402.146 C 1731.451 402.340 1733.479 404.713 1735.399 407.419 C 1738.840 412.269 1738.903 412.304 1739.908 409.919 C 1750.348 385.134 1762.775 359.641 1768.579 351.098 C 1771.541 346.740 1771.541 345.808 1768.587 339.500 L 1766.244 334.500 1769.246 326.500 C 1780.997 295.185 1792.377 260.775 1794.583 249.886 C 1796.624 239.814 1796.078 228.218 1793.264 221.878 C 1787.988 209.993 1770.705 201.788 1755.801 204.093 "/>

</svg>
