<?xml version="1.0" encoding="utf-8"?>
<!DOCTYPE svg PUBLIC "-//W3C//DTD SVG 20010904//EN" "http://www.w3.org/TR/2001/REC-SVG-20010904/DTD/svg10.dtd">
<svg version="1.0" xmlns="http://www.w3.org/2000/svg" width="2002pt" height="490pt" viewBox="0 0 2002 490" style="" preserveAspectRatio="xMidYMid meet">

<style>
@keyframes lineAnimation {
    0% {
        stroke-dashoffset: 3000;
        fill: #cbde37;
        stroke: #3785de;
    }
    25% {
        stroke-dashoffset: 2000;
        fill: #de3737;
        stroke: #3785de;
    }
    50% {
        stroke-dashoffset: 1000;
        fill: #37c5de;
        stroke: #3785de;
    }
    75% {
        stroke-dashoffset: 500;
        fill: #e710b8;
        stroke: #3785de;
    }
    100% {
        stroke-dashoffset: 0;
        fill: #3785de;
        stroke: #3785de;
    }
}

.yun {
    fill: none;
    stroke: #676767FF;
    stroke-width: 5;
    stroke-miterlimit: 10;
    stroke-dasharray: 3500;
    stroke-dashoffset: 3500;
    animation: lineAnimation 1s linear forwards;
    animation-delay: 1.25s;
    animation-iteration-count: infinite;
    animation-direction: alternate;
}


.fan {
    fill: none;
    stroke: #EE3A24FF;
    stroke-width: 5;
    stroke-miterlimit: 10;
    stroke-dasharray: 4500;
    stroke-dashoffset: 4500;
    animation: lineAnimation 1s linear forwards;
    animation-delay: 1.5s;
    animation-iteration-count: infinite;
    animation-direction: alternate;

}


.bo {
    fill: none;
    stroke: #EE3A24FF;
    stroke-width: 5;
    stroke-miterlimit: 10;
    stroke-dasharray: 3500;
    stroke-dashoffset: 3500;
    animation: lineAnimation 1s linear forwards;
    animation-delay: 1.75s;
    animation-iteration-count: infinite;
    animation-direction: alternate;
}

.ke {
    fill: none;
    stroke: #EE3A24FF;
    stroke-width: 5;
    stroke-miterlimit: 10;
    stroke-dasharray: 3500;
    stroke-dashoffset: 3500;
    animation: lineAnimation 1s linear forwards;
    animation-delay: 2s;
    animation-iteration-count: infinite;
    animation-direction: alternate;
}

</style>

<path class='yun' d="M 54.924 158.978 C 33.500 160.667 24.287 165.383 18.402 177.672 C 13.864 187.147 12.786 195.445 13.290 217.000 C 13.887 242.460 15.478 247.561 25.851 257.264 C 35.063 265.881 45.775 269.302 62.500 268.969 C 68.000 268.859 77.978 268.821 84.673 268.885 C 96.228 268.994 97.003 269.131 99.923 271.589 C 105.554 276.326 105.003 278.336 86.519 320.500 C 49.122 405.809 50.574 401.712 50.532 422.000 C 50.501 436.899 50.606 437.713 53.228 443.000 C 57.388 451.388 66.618 460.208 75.080 463.880 C 85.727 468.501 85.691 468.500 242.000 468.500 C 408.723 468.500 394.929 469.171 408.104 460.425 C 424.750 449.375 431.032 435.967 429.595 414.558 C 428.708 401.345 425.641 391.555 417.237 375.116 C 403.741 348.716 381.156 308.602 372.863 296.303 C 356.239 271.648 337.337 265.470 310.567 275.942 C 297.453 281.073 279.311 300.283 277.509 310.946 C 276.779 315.270 278.406 328.855 280.629 337.000 C 281.455 340.025 283.731 346.638 285.687 351.696 C 289.399 361.296 289.653 366.384 286.548 368.960 C 283.911 371.149 269.454 371.685 231.500 371.004 C 200.227 370.442 192.850 370.042 189.830 368.745 C 185.944 367.076 184.000 364.498 184.000 361.012 C 184.000 359.846 188.554 347.779 194.119 334.196 C 215.114 282.960 217.519 278.056 224.341 272.582 L 228.182 269.500 252.341 269.000 L 276.500 268.500 295.500 260.858 C 305.950 256.655 316.885 252.718 319.799 252.108 C 327.981 250.397 348.998 250.690 354.715 252.594 C 357.347 253.471 363.775 256.787 369.000 259.963 C 384.809 269.572 381.467 268.884 408.000 267.994 C 420.925 267.561 433.123 266.706 435.106 266.096 C 441.139 264.238 450.412 257.572 454.163 252.396 C 460.807 243.228 461.509 239.905 461.426 218.000 C 461.348 197.593 460.366 190.682 456.142 180.830 C 452.001 171.173 443.421 164.508 432.000 162.079 C 428.525 161.339 405.331 160.549 369.000 159.933 C 291.467 158.617 68.112 157.938 54.924 158.978 "/>
<path class='yun' d="M 89.580 25.107 C 73.972 27.383 60.198 39.491 55.599 54.979 C 52.106 66.740 54.654 98.237 60.302 113.123 C 64.849 125.106 68.408 129.499 76.537 133.158 C 81.031 135.181 83.721 135.460 105.000 136.109 C 143.446 137.281 375.348 137.149 385.026 135.950 C 391.188 135.186 394.560 134.203 397.384 132.347 C 403.453 128.358 409.992 121.937 412.008 117.985 C 418.659 104.947 420.580 70.015 415.544 53.690 C 410.867 38.532 401.424 29.615 387.342 27.062 C 383.417 26.350 342.173 25.628 269.896 25.004 C 140.289 23.886 97.784 23.911 89.580 25.107 "/>

<path  class='fan' d="M 717.500 257.106 C 711.956 258.360 702.140 262.025 698.271 264.286 C 696.494 265.324 692.308 269.597 688.968 273.781 C 683.052 281.193 682.632 281.498 672.698 285.584 C 667.089 287.891 657.952 291.824 652.393 294.325 C 637.415 301.062 631.858 302.266 615.500 302.320 C 598.684 302.374 595.860 301.653 574.145 291.752 C 558.868 284.786 558.753 284.753 551.645 285.217 C 543.524 285.748 538.135 288.076 531.816 293.786 C 524.693 300.220 523.551 304.108 523.524 322.000 C 523.496 339.995 524.688 343.985 532.185 350.995 C 542.239 360.396 550.312 362.997 569.460 363.006 C 590.268 363.015 630.045 364.954 632.110 366.059 C 634.857 367.529 634.426 370.560 631.139 372.901 C 627.234 375.682 595.233 383.688 582.689 385.022 C 542.618 389.286 542.155 389.364 534.778 393.118 C 526.412 397.375 520.783 404.666 518.063 414.766 C 517.436 417.095 516.923 424.112 516.923 430.362 C 516.923 439.397 517.377 443.107 519.140 448.476 C 522.954 460.096 532.485 468.510 546.375 472.519 C 555.149 475.051 583.100 474.161 605.000 470.652 C 638.349 465.308 640.896 464.616 669.159 453.225 C 686.559 446.211 690.513 444.163 703.575 435.400 C 714.867 427.825 721.606 422.330 732.278 412.000 C 739.949 404.575 747.187 397.953 748.363 397.285 C 751.135 395.710 759.254 395.654 760.800 397.200 C 762.965 399.365 762.068 403.777 757.462 413.635 L 752.924 423.347 756.163 428.094 C 761.343 435.684 767.807 439.408 799.500 453.059 C 814.936 459.708 822.064 462.134 837.500 465.995 C 860.283 471.694 859.012 471.463 881.471 473.983 C 902.674 476.363 916.629 476.546 923.265 474.532 C 929.380 472.677 938.074 466.900 942.456 461.781 C 954.826 447.329 956.109 421.174 945.131 407.285 C 938.541 398.948 928.067 394.671 906.500 391.509 C 876.509 387.111 869.984 385.789 854.500 380.973 C 835.930 375.197 830.193 369.772 840.272 367.520 C 842.048 367.123 861.275 366.440 883.000 366.002 C 924.293 365.170 927.638 364.810 936.500 360.244 C 947.674 354.487 952.950 341.098 951.693 321.690 C 950.887 309.255 948.707 303.697 942.005 296.995 C 935.739 290.730 929.453 287.987 921.375 287.995 C 917.262 287.999 914.002 289.061 904.875 293.370 C 885.982 302.290 884.913 302.500 858.500 302.500 C 831.538 302.500 829.454 302.059 813.599 293.000 C 808.045 289.826 800.674 286.213 797.221 284.970 C 791.841 283.034 790.244 281.837 786.063 276.605 C 779.227 268.051 776.370 265.561 769.483 262.153 C 759.425 257.176 752.924 255.988 736.356 256.100 C 728.185 256.156 719.700 256.608 717.500 257.106 "/>
<path  class='fan' d="M 843.000 20.575 C 836.149 22.374 832.000 26.474 832.000 31.445 C 832.000 33.451 833.936 38.908 836.696 44.679 C 841.131 53.953 841.394 54.973 841.433 63.000 C 841.477 72.227 840.463 75.084 831.827 90.062 C 827.429 97.690 827.284 99.136 830.026 108.000 C 832.937 117.409 833.739 121.356 834.916 132.063 C 835.780 139.920 836.683 143.091 839.984 149.845 C 851.451 173.311 851.537 182.424 840.470 201.129 C 837.420 206.283 834.648 211.591 834.310 212.925 C 833.972 214.259 834.948 220.974 836.479 227.848 C 839.856 243.008 839.553 250.340 835.031 262.952 C 831.289 273.388 831.261 275.415 834.813 278.967 C 838.965 283.119 846.564 284.392 863.000 283.688 C 884.420 282.772 887.595 281.060 897.281 265.213 C 900.958 259.196 904.537 253.811 905.233 253.247 C 905.930 252.683 912.368 252.046 919.541 251.830 C 931.440 251.474 933.094 251.188 938.443 248.572 C 954.661 240.637 966.738 218.375 963.183 202.971 C 960.720 192.302 948.510 178.314 926.100 160.490 C 913.957 150.832 912.060 148.359 913.823 144.488 C 915.347 141.145 917.489 140.447 930.517 139.047 C 943.045 137.701 948.764 135.577 954.335 130.201 C 959.303 125.406 961.670 120.699 963.509 111.957 C 965.379 103.066 965.374 97.213 963.489 89.219 C 961.613 81.261 959.067 76.320 954.838 72.430 C 947.238 65.440 942.975 64.100 924.868 63.014 C 906.300 61.900 905.253 61.245 902.492 49.020 C 901.558 44.884 900.400 39.910 899.917 37.968 C 898.892 33.837 892.172 26.650 886.739 23.871 C 878.502 19.659 853.630 17.785 843.000 20.575 "/>
<path  class='fan' d="M 600.264 18.524 C 592.568 20.264 589.313 21.908 585.103 26.178 C 580.004 31.350 577.205 37.966 575.458 48.978 C 574.609 54.330 572.823 57.304 569.569 58.787 C 568.247 59.389 559.590 60.413 550.333 61.061 C 531.730 62.364 528.475 63.359 521.769 69.790 C 515.782 75.533 514.500 80.771 514.500 99.500 C 514.500 114.156 514.688 115.852 516.739 119.689 C 521.378 128.367 528.736 133.289 539.637 135.007 C 551.309 136.847 553.847 137.804 555.493 140.987 C 556.322 142.590 557.000 144.597 557.000 145.447 C 557.000 147.924 550.673 154.267 535.508 166.993 C 518.452 181.306 514.966 184.810 511.569 191.051 C 503.854 205.226 506.955 222.022 519.895 236.144 C 530.583 247.808 538.446 250.305 557.410 248.057 C 571.915 246.338 572.823 246.870 576.325 259.139 C 578.549 266.930 579.640 269.083 583.233 272.777 C 591.152 280.920 599.311 283.430 618.000 283.472 C 632.610 283.505 636.084 282.547 641.512 276.987 C 646.587 271.791 646.507 269.544 640.736 255.000 C 636.503 244.330 636.086 242.453 634.962 229.000 C 633.580 212.462 635.320 216.388 615.471 185.000 C 600.509 161.341 598.579 157.140 598.154 147.309 C 597.555 133.465 601.724 126.769 619.469 113.070 C 629.256 105.516 630.044 104.616 637.209 92.832 C 641.333 86.049 644.947 79.808 645.240 78.963 C 645.534 78.118 645.173 74.068 644.439 69.963 C 642.423 58.684 642.691 55.311 646.500 44.000 C 648.425 38.284 650.000 32.764 650.000 31.734 C 650.000 28.603 644.323 21.386 640.295 19.395 C 635.291 16.922 609.801 16.368 600.264 18.524 "/>
<path  class='fan' d="M 783.772 139.357 C 781.721 140.123 776.996 142.683 773.272 145.047 C 751.263 159.016 750.874 159.057 735.944 148.950 C 727.379 143.152 723.449 141.819 714.923 141.821 C 708.693 141.823 706.204 142.341 700.918 144.738 C 693.513 148.095 683.149 157.183 679.370 163.631 C 676.296 168.877 676.439 169.863 682.721 186.776 C 685.229 193.528 687.053 199.280 686.775 199.558 C 686.496 199.837 682.569 201.602 678.046 203.481 C 660.925 210.594 655.000 218.738 655.000 235.158 C 655.000 244.559 656.451 248.542 661.667 253.466 C 667.619 259.084 668.533 259.002 680.698 251.756 C 703.616 238.105 705.901 237.500 734.500 237.500 C 767.145 237.500 776.279 239.913 793.673 253.132 C 805.701 262.272 807.866 262.774 813.144 257.649 C 820.977 250.041 820.776 237.233 812.594 222.603 C 810.618 219.067 809.000 215.204 809.000 214.018 C 809.000 211.653 812.380 206.474 819.454 198.000 C 830.153 185.183 831.782 175.614 825.383 163.173 C 821.183 155.009 811.127 144.127 804.796 140.894 C 799.420 138.149 789.040 137.390 783.772 139.357 "/>
<path  class='fan' d="M 773.776 27.083 C 767.043 28.070 764.109 29.480 753.869 36.654 C 749.164 39.950 745.190 42.000 743.504 42.000 C 741.986 42.000 734.933 38.778 727.636 34.750 L 714.500 27.500 704.000 27.506 C 693.911 27.511 693.248 27.648 687.055 30.999 C 679.395 35.144 668.563 45.525 666.057 51.122 C 663.806 56.150 664.512 59.911 670.579 75.199 C 672.991 81.276 674.781 86.546 674.557 86.908 C 674.333 87.270 671.303 89.507 667.825 91.877 C 660.433 96.915 656.422 101.731 654.879 107.420 C 653.534 112.380 654.368 122.878 656.424 126.853 C 659.539 132.876 670.268 139.483 675.051 138.323 C 676.398 137.996 682.675 135.266 689.000 132.258 C 711.263 121.667 716.863 121.536 738.131 131.113 C 742.879 133.251 748.280 134.992 750.132 134.983 C 752.233 134.973 756.697 133.215 762.000 130.308 C 777.171 121.995 779.721 121.007 791.191 118.999 C 797.411 117.911 803.072 117.016 803.771 117.010 C 804.471 117.005 805.528 115.936 806.120 114.636 C 807.014 112.673 806.586 110.883 803.599 104.088 C 801.619 99.586 800.000 95.283 800.000 94.526 C 800.000 93.768 803.769 88.597 808.376 83.034 C 822.811 65.601 823.356 56.943 810.954 42.041 C 804.853 34.710 797.178 29.398 789.878 27.455 C 783.971 25.883 782.237 25.843 773.776 27.083 "/>
<path  class='fan' d="M 623.762 133.750 C 617.939 139.744 616.763 145.128 619.164 154.807 C 620.533 160.324 620.399 160.096 633.864 179.802 C 641.916 191.584 645.282 195.667 648.498 197.552 C 652.507 199.901 658.039 200.690 661.418 199.393 C 663.465 198.608 663.511 192.574 661.515 186.696 C 660.699 184.291 659.623 177.629 659.125 171.891 C 658.145 160.614 656.694 156.169 652.467 151.500 C 650.972 149.850 647.219 145.126 644.125 141.003 C 636.966 131.462 635.300 130.074 630.953 130.033 C 628.145 130.007 626.647 130.781 623.762 133.750 "/>

<path class='bo' d="M 1287.258 12.494 C 1283.275 13.216 1276.996 15.335 1273.305 17.204 C 1266.905 20.444 1266.334 21.039 1260.955 30.051 C 1256.843 36.943 1254.394 39.973 1251.908 41.248 C 1248.839 42.823 1244.672 42.998 1210.000 43.009 C 1167.544 43.023 1165.202 43.296 1157.888 49.088 C 1147.328 57.452 1145.171 77.510 1153.359 91.207 C 1160.137 102.546 1171.740 104.998 1220.044 105.298 C 1256.326 105.523 1256.379 105.533 1259.712 112.522 C 1261.014 115.252 1261.114 116.454 1260.207 118.446 C 1258.001 123.286 1254.729 123.770 1220.859 124.267 C 1189.101 124.732 1183.815 125.311 1176.000 129.178 C 1171.185 131.561 1165.231 136.964 1162.179 141.721 C 1156.207 151.028 1155.887 153.825 1154.722 207.000 C 1153.285 272.599 1154.241 281.108 1163.958 289.117 C 1170.296 294.341 1175.694 295.503 1193.500 295.474 C 1216.020 295.438 1221.921 293.397 1230.904 282.537 C 1238.576 273.262 1243.785 271.406 1254.545 274.116 C 1258.018 274.990 1260.332 276.665 1265.252 281.866 C 1272.490 289.517 1274.655 291.053 1281.428 293.338 C 1287.477 295.378 1299.537 295.511 1304.128 293.587 C 1308.441 291.780 1310.720 289.212 1316.001 280.209 C 1320.882 271.886 1324.941 268.136 1333.549 263.998 C 1342.687 259.605 1361.218 257.844 1368.582 260.670 C 1371.186 261.669 1373.901 268.044 1375.385 276.643 C 1376.230 281.536 1377.725 286.506 1378.785 287.940 C 1384.039 295.049 1399.420 298.258 1418.072 296.137 C 1434.798 294.235 1442.501 289.163 1447.137 277.000 C 1449.016 272.069 1449.318 268.345 1450.056 241.000 C 1451.163 199.981 1451.140 167.056 1449.999 158.268 C 1448.430 146.194 1441.131 135.168 1431.629 130.519 C 1424.737 127.147 1416.053 126.268 1379.000 125.188 C 1349.320 124.323 1347.596 123.989 1346.474 118.882 C 1345.632 115.048 1348.364 109.226 1351.702 107.745 C 1353.752 106.835 1367.725 106.365 1404.000 105.984 C 1458.802 105.408 1457.516 105.563 1464.861 98.659 C 1470.226 93.616 1472.295 87.881 1472.315 78.000 C 1472.350 60.371 1464.700 47.500 1454.186 47.500 C 1448.946 47.500 1448.831 47.630 1440.151 63.339 C 1432.264 77.613 1427.196 82.857 1416.063 88.258 C 1394.916 98.520 1377.441 92.505 1341.732 62.674 C 1326.364 49.836 1324.776 46.651 1329.619 38.388 C 1332.076 34.194 1332.160 33.642 1330.975 29.412 C 1329.524 24.229 1325.193 17.828 1321.500 15.408 C 1315.342 11.373 1300.435 10.104 1287.258 12.494 M 1370.781 218.529 C 1376.910 220.981 1380.688 229.774 1377.624 234.451 C 1375.147 238.231 1369.811 239.460 1355.790 239.481 C 1341.013 239.503 1339.986 238.996 1339.271 231.325 C 1338.649 224.644 1341.743 220.065 1348.009 218.394 C 1354.552 216.649 1366.257 216.719 1370.781 218.529 M 1371.707 168.591 C 1376.081 169.250 1379.004 173.184 1378.985 178.385 C 1378.966 183.389 1378.466 184.211 1374.000 186.569 C 1371.377 187.954 1367.674 188.517 1359.220 188.817 C 1345.229 189.314 1342.454 188.400 1340.946 182.798 C 1339.561 177.655 1340.445 173.906 1343.799 170.694 C 1346.029 168.558 1347.633 168.049 1353.000 167.775 C 1359.585 167.438 1365.875 167.712 1371.707 168.591 M 1258.271 218.849 C 1261.228 220.564 1265.000 227.241 1265.000 230.759 C 1265.000 235.372 1257.385 238.047 1243.629 238.268 C 1229.669 238.492 1226.000 236.223 1226.000 227.369 C 1226.000 223.101 1227.326 220.445 1230.273 218.811 C 1235.670 215.818 1253.086 215.842 1258.271 218.849 M 1260.738 168.647 C 1263.003 170.333 1263.553 171.594 1263.795 175.656 C 1264.039 179.738 1263.670 181.064 1261.701 183.189 C 1258.277 186.883 1251.374 188.122 1240.476 186.997 C 1230.003 185.917 1226.600 183.596 1226.600 177.534 C 1226.600 169.254 1233.286 165.868 1248.738 166.321 C 1256.218 166.540 1258.501 166.982 1260.738 168.647 "/>
<path  class='bo' d="M 1074.500 12.525 C 1065.148 14.274 1060.841 16.235 1056.457 20.739 C 1051.897 25.423 1049.256 30.506 1047.867 37.267 C 1047.275 40.145 1046.501 56.080 1046.146 72.678 C 1045.363 109.256 1046.300 106.809 1031.257 111.560 C 1017.822 115.802 1014.966 117.691 1011.607 124.550 C 1004.589 138.883 1004.739 138.211 1004.236 157.519 C 1003.807 173.961 1003.962 176.237 1005.998 183.519 C 1010.727 200.424 1015.845 205.734 1029.097 207.484 C 1035.424 208.319 1041.878 210.922 1044.000 213.493 C 1045.318 215.091 1045.460 229.131 1045.167 329.405 C 1044.935 408.886 1045.164 445.169 1045.922 449.000 C 1047.590 457.430 1052.520 466.640 1057.165 470.004 C 1064.839 475.563 1069.574 476.500 1090.000 476.500 C 1105.615 476.500 1109.358 476.202 1114.000 474.592 C 1128.059 469.714 1133.753 461.827 1136.084 444.000 C 1137.301 434.698 1137.194 401.551 1135.918 392.322 C 1134.923 385.124 1134.187 383.428 1126.689 371.063 C 1121.153 361.932 1117.993 355.522 1116.829 351.063 C 1113.594 338.673 1115.054 314.656 1119.795 302.261 C 1120.897 299.380 1124.363 293.209 1127.497 288.548 C 1130.630 283.887 1133.592 278.369 1134.078 276.286 C 1134.563 274.204 1135.213 261.475 1135.521 248.000 C 1135.829 234.525 1136.474 206.400 1136.954 185.500 L 1137.827 147.500 1142.414 135.653 C 1144.936 129.137 1147.000 122.600 1147.000 121.128 C 1147.000 119.458 1144.324 114.507 1139.892 107.975 C 1129.290 92.350 1128.588 90.477 1128.649 78.000 C 1128.693 69.018 1129.300 65.195 1132.850 51.553 C 1135.132 42.782 1137.000 34.637 1137.000 33.453 C 1137.000 31.163 1132.267 23.996 1128.273 20.237 C 1119.767 12.232 1095.037 8.685 1074.500 12.525 "/>
<path class='bo' d="M 1342.366 281.919 C 1337.389 284.953 1334.286 289.918 1331.994 298.513 C 1329.335 308.487 1326.805 311.131 1318.167 312.965 C 1310.482 314.595 1287.634 313.811 1277.567 311.571 C 1270.601 310.020 1268.477 309.122 1257.596 303.116 C 1254.348 301.324 1250.523 299.826 1249.096 299.787 C 1247.668 299.748 1243.125 301.417 1239.000 303.497 C 1222.228 311.952 1209.353 314.614 1189.330 313.770 C 1180.525 313.399 1175.789 312.536 1164.000 309.159 C 1156.025 306.874 1148.428 305.004 1147.118 305.003 C 1143.489 304.999 1138.406 308.624 1136.546 312.545 C 1132.952 320.118 1133.755 342.779 1137.898 350.709 C 1142.211 358.965 1151.091 366.000 1157.200 366.000 C 1163.417 366.000 1167.918 363.215 1184.000 349.416 C 1197.673 337.684 1205.879 332.900 1216.370 330.546 C 1221.685 329.353 1238.408 329.927 1244.425 331.508 C 1253.716 333.950 1259.001 337.409 1274.596 351.254 C 1282.590 358.351 1290.736 364.827 1292.698 365.647 C 1294.661 366.467 1301.944 367.557 1308.883 368.069 C 1325.746 369.314 1328.774 370.216 1330.578 374.531 C 1332.502 379.137 1332.361 382.896 1330.125 386.563 C 1328.632 389.011 1326.877 390.032 1321.379 391.654 C 1313.161 394.078 1312.205 395.493 1308.973 410.000 C 1306.043 423.152 1302.471 429.974 1293.114 440.290 C 1283.975 450.366 1282.806 453.331 1285.958 458.433 C 1288.955 463.282 1294.306 467.705 1298.723 468.986 C 1307.305 471.474 1322.003 472.205 1351.033 471.586 C 1387.682 470.804 1398.512 468.758 1407.424 460.932 C 1412.596 456.391 1414.666 452.426 1417.614 441.414 C 1420.238 431.610 1420.262 431.225 1419.716 406.745 C 1419.407 392.881 1419.567 380.529 1420.081 378.670 C 1421.694 372.825 1424.362 371.331 1436.500 369.473 C 1453.965 366.799 1457.267 365.639 1461.670 360.637 C 1466.256 355.428 1468.599 349.273 1470.096 338.500 C 1472.073 324.285 1469.651 311.230 1464.249 306.981 C 1460.865 304.319 1456.390 304.487 1447.731 307.600 C 1428.445 314.536 1428.630 314.501 1411.000 314.483 C 1392.913 314.465 1384.093 312.995 1374.310 308.367 C 1366.127 304.496 1363.279 301.516 1358.313 291.628 C 1355.802 286.627 1353.016 281.979 1352.123 281.299 C 1349.755 279.496 1345.941 279.738 1342.366 281.919 "/>
<path class='bo' d="M 1219.500 349.871 C 1210.585 352.228 1204.870 355.805 1195.654 364.796 C 1185.041 375.150 1184.032 380.217 1190.049 392.940 C 1192.334 397.771 1202.662 411.837 1206.981 416.000 C 1207.267 416.275 1211.100 420.771 1215.500 425.990 C 1225.681 438.067 1227.339 439.575 1233.868 442.692 C 1244.352 447.697 1254.966 444.693 1270.000 432.466 C 1294.127 412.844 1293.780 395.089 1268.795 370.855 C 1258.198 360.575 1249.847 354.303 1243.280 351.691 C 1238.052 349.611 1224.426 348.568 1219.500 349.871 "/>
<path class='bo' d="M 1368.000 15.428 C 1361.441 17.248 1357.709 19.429 1354.081 23.560 C 1350.299 27.868 1349.483 29.783 1348.563 36.515 C 1347.940 41.071 1348.156 41.916 1350.928 45.743 C 1355.208 51.651 1363.884 58.206 1375.000 63.931 C 1397.717 75.631 1404.835 75.838 1416.320 65.129 C 1423.206 58.709 1425.197 50.148 1421.477 42.955 C 1416.845 33.999 1397.880 19.911 1385.145 15.968 C 1377.961 13.743 1374.466 13.633 1368.000 15.428 "/>

<path class='ke' d="M 1676.156 121.006 C 1661.395 123.084 1651.059 128.412 1643.001 138.094 C 1633.594 149.399 1629.334 156.349 1626.662 164.752 C 1623.031 176.172 1620.636 180.481 1614.125 187.309 C 1603.521 198.428 1596.261 201.094 1567.318 204.498 C 1550.284 206.501 1546.262 207.300 1541.528 209.618 C 1528.406 216.043 1522.000 228.694 1522.000 248.183 C 1522.000 258.019 1523.391 263.042 1527.097 266.593 C 1530.769 270.111 1537.369 270.794 1546.053 268.553 C 1549.599 267.638 1559.700 265.333 1568.500 263.430 C 1590.055 258.770 1599.357 256.467 1606.500 254.021 C 1615.255 251.023 1625.240 250.272 1628.443 252.371 C 1633.360 255.593 1632.681 261.562 1627.067 264.466 C 1625.486 265.283 1619.537 267.275 1613.846 268.892 C 1608.156 270.509 1598.100 273.399 1591.500 275.315 C 1584.900 277.230 1570.574 281.088 1559.666 283.888 C 1533.779 290.533 1525.826 294.579 1518.919 304.618 C 1513.351 312.711 1511.717 319.061 1511.617 333.000 C 1511.514 347.253 1512.917 352.907 1518.757 361.778 C 1526.118 372.959 1536.052 378.211 1543.458 374.837 C 1546.469 373.465 1546.947 371.825 1549.909 352.674 C 1552.197 337.882 1554.332 332.311 1562.099 320.860 C 1568.601 311.276 1576.100 306.010 1588.510 302.317 C 1594.097 300.654 1603.210 300.513 1724.000 300.220 C 1806.421 300.019 1858.328 300.279 1866.780 300.933 C 1890.559 302.773 1900.931 306.895 1912.365 319.050 C 1923.696 331.094 1928.839 343.110 1929.039 358.000 C 1929.147 366.064 1930.858 370.195 1934.500 371.188 C 1939.007 372.416 1942.000 371.389 1948.284 366.457 C 1957.340 359.349 1961.335 351.352 1963.051 336.895 C 1965.742 314.211 1960.205 296.977 1947.520 288.557 C 1938.299 282.436 1930.630 279.950 1896.500 272.013 C 1870.464 265.958 1865.821 264.403 1864.080 261.150 C 1861.722 256.744 1862.783 254.785 1872.807 245.037 C 1882.382 235.725 1893.040 222.716 1896.349 216.300 C 1900.146 208.939 1898.094 206.651 1881.240 199.449 C 1860.707 190.675 1857.077 186.493 1850.575 164.120 C 1848.627 157.415 1846.565 151.055 1845.993 149.988 C 1843.649 145.608 1842.666 145.515 1795.383 145.195 L 1750.265 144.889 1741.747 137.571 C 1731.993 129.192 1725.579 125.841 1713.810 122.975 C 1704.250 120.646 1685.629 119.673 1676.156 121.006 M 1763.054 210.897 C 1764.459 211.582 1766.185 213.066 1766.889 214.195 C 1768.056 216.062 1767.599 216.805 1761.811 222.453 C 1753.744 230.324 1748.156 232.553 1741.509 230.553 C 1733.897 228.262 1724.000 219.861 1724.000 215.690 C 1724.000 213.124 1727.667 210.971 1733.597 210.054 C 1741.545 208.825 1759.883 209.350 1763.054 210.897 "/>
<path class='ke' d="M 1637.000 318.993 C 1602.165 319.566 1598.040 319.811 1593.663 321.561 C 1584.841 325.090 1576.466 335.538 1571.938 348.664 C 1567.518 361.478 1567.241 430.929 1571.561 443.174 C 1575.504 454.350 1584.300 463.505 1594.220 466.759 C 1608.528 471.454 1609.963 471.500 1741.000 471.500 C 1877.591 471.500 1871.613 471.764 1885.543 465.110 C 1898.848 458.756 1905.748 450.401 1908.529 437.280 C 1911.196 424.694 1909.851 366.108 1906.541 350.688 C 1902.925 333.841 1893.569 324.689 1875.476 320.297 C 1869.187 318.770 1858.998 318.591 1772.000 318.481 C 1718.925 318.414 1658.175 318.644 1637.000 318.993 M 1802.678 385.602 C 1808.253 389.755 1808.251 396.251 1802.672 400.398 C 1799.869 402.482 1799.305 402.500 1737.172 402.489 C 1676.768 402.479 1674.382 402.408 1671.250 400.524 C 1668.073 398.613 1667.550 397.247 1667.986 392.000 C 1668.238 388.972 1669.547 387.266 1673.500 384.817 C 1676.352 383.050 1679.542 382.972 1738.178 383.229 C 1799.081 383.497 1799.891 383.526 1802.678 385.602 "/>
<path class='ke' d="M 1710.500 18.447 C 1700.450 19.826 1691.337 22.268 1686.030 25.004 C 1680.188 28.015 1676.707 32.345 1672.500 41.832 C 1669.287 49.078 1667.757 51.336 1664.722 53.314 L 1660.945 55.776 1608.222 56.274 C 1559.608 56.734 1554.903 56.929 1547.842 58.779 C 1527.557 64.092 1515.790 76.334 1511.499 96.588 C 1509.680 105.175 1509.434 147.079 1511.145 156.918 C 1514.964 178.880 1527.310 186.950 1557.140 186.985 C 1570.936 187.001 1584.128 184.996 1590.030 181.984 C 1592.045 180.957 1595.981 177.613 1598.777 174.554 C 1603.981 168.859 1604.460 167.729 1608.533 151.500 L 1610.290 144.500 1624.895 130.000 C 1633.346 121.610 1641.887 114.101 1645.165 112.179 C 1657.579 104.903 1674.654 101.003 1694.000 101.027 C 1707.891 101.044 1716.411 102.329 1728.500 106.230 C 1736.565 108.832 1740.876 111.050 1750.779 117.689 C 1757.795 122.392 1764.632 126.216 1766.729 126.609 C 1768.748 126.988 1788.647 126.982 1810.950 126.595 C 1854.154 125.847 1859.210 126.200 1864.379 130.322 C 1866.856 132.297 1867.362 133.676 1868.497 141.537 C 1869.208 146.467 1870.084 153.650 1870.444 157.500 C 1871.618 170.071 1875.546 176.253 1885.320 180.909 C 1892.092 184.135 1908.021 187.003 1919.128 186.996 C 1927.981 186.990 1943.410 184.345 1947.820 182.076 C 1954.227 178.781 1960.187 170.897 1963.347 161.540 C 1967.518 149.187 1967.508 103.818 1963.332 91.395 C 1958.351 76.581 1947.038 66.684 1929.809 62.068 C 1917.918 58.883 1903.089 57.963 1854.500 57.398 C 1805.261 56.826 1801.771 56.469 1798.787 51.698 C 1798.031 50.489 1796.110 46.205 1794.519 42.179 C 1789.259 28.872 1777.780 20.904 1760.303 18.428 C 1748.435 16.746 1722.824 16.756 1710.500 18.447 "/>

</svg>
